<svg width="147" height="147" viewBox="0 0 147 147" fill="none" xmlns="http://www.w3.org/2000/svg">
<g clip-path="url(#clip0_2_4394)">
<path d="M65.128 104.925C65.0322 104.829 65.0636 104.558 65.2691 103.634L66.8267 96.7083L64.9866 101.776C64.7328 102.477 64.6454 102.644 64.438 102.58C64.2864 102.524 64.0231 102.435 65.6391 96.8894L68.9742 85.5025C69.5525 83.5343 70.0591 81.574 70.2406 80.6256L71.2986 75.1104C71.6697 73.2056 73.1509 68.018 73.7065 66.7115L75.3178 62.9115C75.5877 62.2583 76.1583 60.4734 76.7206 58.4733L79.9836 46.887C81.3695 41.9385 81.5929 41.9867 81.7683 42.0349C81.9757 42.0831 81.9919 42.2107 81.731 43.3822L80.1655 50.3156L82.0056 45.2324C82.2594 44.5313 82.3468 44.364 82.5542 44.4282C82.7058 44.4843 82.9691 44.5725 81.3531 50.1186L78.0339 61.5055C77.4636 63.4657 76.949 65.434 76.7675 66.3824L75.7095 71.8977C75.3384 73.8025 73.8572 78.99 73.3016 80.2965L71.6903 84.0965C71.4204 84.7497 70.8497 86.5346 70.2875 88.5347L67.0245 100.121C65.6386 105.07 65.4153 105.021 65.2398 104.973C65.1839 104.965 65.152 104.949 65.128 104.925ZM67.477 94.8439C67.5648 94.9317 67.5494 95.1868 67.3359 96.1352L65.8257 102.822C66.0555 102.096 66.3328 101.164 66.6576 100.025L69.9205 88.4383C70.4828 86.4223 71.0534 84.6215 71.3392 83.9523L72.9505 80.1523C73.4982 78.8538 74.9794 73.7141 75.3346 71.8252L76.3926 66.31C76.5742 65.3456 77.0966 63.3693 77.6669 61.3932L80.9861 50.0062C81.406 48.5799 81.7305 47.3288 81.9599 46.3964L80.1436 51.4079C79.8898 52.0931 79.8024 52.2603 79.6109 52.1962C79.4274 52.14 79.3874 52.0682 79.6562 50.8568L81.1664 44.1705C80.9366 44.8956 80.6593 45.8279 80.3425 46.9594L77.0796 58.5457C76.5173 60.5618 75.9466 62.3626 75.6609 63.0318L74.0496 66.8318C73.5019 68.1303 72.0207 73.27 71.6654 75.1589L70.6075 80.6741C70.4259 81.6385 69.9114 83.6068 69.3331 85.5909L66.014 96.9778C65.6021 98.4122 65.2696 99.6553 65.0401 100.588L66.8644 95.5683C67.1183 94.8831 67.2056 94.7158 67.3971 94.78C67.4211 94.8039 67.453 94.8199 67.477 94.8439Z" fill="url(#paint0_linear_2_4394)"/>
<path d="M64.7947 105.737C64.6909 105.634 64.7302 105.355 64.9357 104.398L66.6199 96.9788L64.605 102.365C64.3432 103.074 64.2478 103.233 64.0404 103.169C63.9128 103.121 63.6016 103.016 65.2971 97.3271L68.7593 85.6853C69.3614 83.6773 69.8918 81.6611 70.0733 80.6808L71.1708 74.9664C71.5497 72.9898 73.0944 67.6908 73.6819 66.3684L75.3809 62.5287C75.6667 61.8755 76.2612 60.0509 76.8473 58.0109L80.2453 46.1458C81.6869 41.1097 81.9341 41.1659 82.1016 41.2061C82.309 41.2544 82.3332 41.3899 82.0564 42.5933L80.3722 50.0128L82.3792 44.635C82.6409 43.9259 82.7363 43.7666 82.9437 43.8308C83.0794 43.8709 83.3825 43.9831 81.6871 49.6725L78.2249 61.3143C77.6228 63.3223 77.1003 65.3304 76.9108 66.3187L75.8214 72.0252C75.4424 74.0018 73.8977 79.3008 73.3102 80.6232L71.6192 84.4549C71.3334 85.1081 70.7389 86.9328 70.1527 88.9727L66.7548 100.838C65.3132 105.874 65.0659 105.818 64.8984 105.778C64.8586 105.785 64.8187 105.761 64.7947 105.737ZM67.2148 95.3454C67.3107 95.4413 67.2952 95.6964 67.0658 96.6766L65.4212 103.945C65.6828 103.172 66.0157 102.104 66.3959 100.765L69.7938 88.9003C70.3879 86.8365 70.9824 84.9958 71.2761 84.3347L72.9671 80.5029C73.5467 79.1885 75.0755 73.9373 75.4545 71.9767L76.544 66.2702C76.7335 65.266 77.2718 63.2419 77.866 61.2259L81.3281 49.5841C81.8114 47.9506 82.1835 46.5561 82.4208 45.5679L80.4138 50.9298C80.16 51.615 80.0566 51.7822 79.8652 51.7181C79.6817 51.6619 79.6337 51.5821 79.9184 50.3389L81.563 43.0708C81.3014 43.8436 80.9685 44.9114 80.5883 46.2501L77.1904 58.1152C76.5963 60.179 76.0018 62.0197 75.7081 62.6808L74.0171 66.5126C73.4375 67.827 71.9087 73.0782 71.5297 75.0388L70.4322 80.7533C70.2348 81.7495 69.7124 83.7736 69.1103 85.7976L65.6481 97.4393C65.1648 99.0729 64.7928 100.467 64.5554 101.456L66.5625 96.0937C66.8163 95.4085 66.9196 95.2412 67.1111 95.3054C67.1589 95.3055 67.1908 95.3215 67.2148 95.3454Z" fill="url(#paint1_linear_2_4394)"/>
<path d="M64.4455 106.566C64.3416 106.462 64.365 106.183 64.5943 105.187L66.3972 97.2815L64.2074 102.954C63.9377 103.655 63.8344 103.822 63.6269 103.758C63.4993 103.71 63.1642 103.598 64.9391 97.7491L68.5602 85.8525C69.1783 83.7967 69.7404 81.7328 69.9299 80.7126L71.0588 74.8069C71.4536 72.7666 73.0619 67.3401 73.6733 66.0098L75.444 62.1623C75.7457 61.5091 76.3561 59.6525 76.974 57.5489L80.5229 45.405C82.0202 40.2813 82.2754 40.3455 82.4509 40.3937C82.6503 40.4499 82.6904 40.5696 82.4058 41.8287L80.6029 49.7344L82.7927 44.0618C83.0624 43.3607 83.1658 43.1935 83.3732 43.2577C83.5008 43.3058 83.8359 43.418 82.061 49.2667L78.4399 61.1633C77.8219 63.2192 77.2597 65.2831 77.0703 66.3032L75.9413 72.209C75.5465 74.2493 73.9382 79.6757 73.3268 81.006L71.5561 84.8536C71.2465 85.5147 70.644 87.3633 70.0261 89.467L66.4931 101.611C64.9959 106.735 64.7407 106.67 64.5652 106.622C64.5013 106.606 64.4694 106.59 64.4455 106.566ZM66.9447 95.8394C67.0485 95.9433 67.0251 96.2223 66.8037 97.2105L65.0166 105.036C65.3021 104.224 65.6826 103.044 66.1341 101.507L69.6671 89.3626C70.277 87.251 70.9034 85.3785 71.213 84.7014L72.9837 80.8539C73.5952 79.5395 75.1875 74.1609 75.5744 72.1445L76.7034 66.2387C76.9008 65.2106 77.4549 63.1228 78.0809 61.059L81.702 49.1624C82.2567 47.3297 82.6684 45.7837 82.9136 44.7717L80.7158 50.4362C80.4619 51.1054 80.3586 51.2886 80.1512 51.2244C79.9598 51.1603 79.9276 51.0327 80.2043 49.7974L81.9914 41.9715C81.706 42.7841 81.3255 43.9634 80.8739 45.5013L77.341 57.6452C76.731 59.7569 76.1047 61.6293 75.795 62.3064L74.0244 66.154C73.4129 67.4683 71.8205 72.847 71.4337 74.8634L70.3047 80.7691C70.1073 81.7972 69.5531 83.8851 68.9272 85.9489L65.306 97.8455C64.7514 99.6782 64.3397 101.224 64.0945 102.236L66.2923 96.5717C66.5461 95.9024 66.6494 95.7193 66.8568 95.7834C66.8888 95.7994 66.9207 95.8154 66.9447 95.8394Z" fill="url(#paint2_linear_2_4394)"/>
<path d="M64.0803 107.395C63.9765 107.291 63.9998 106.996 64.2371 105.96L66.1429 97.6637C66.1428 97.6318 66.1587 97.5999 66.1666 97.576L63.7939 103.511C63.5241 104.18 63.4049 104.38 63.1975 104.315C63.03 104.259 62.9183 104.211 63.3931 102.315C63.6858 101.143 64.0976 99.661 64.5731 98.147L68.3533 85.9956C69.0031 83.892 69.5811 81.7803 69.7784 80.7203L70.9389 74.6073C71.3415 72.4953 73.0213 66.9494 73.6726 65.6112L75.5389 61.7478C75.8566 61.0947 76.4988 59.2063 77.1406 57.0628L80.8006 44.6481C82.3535 39.4368 82.6486 39.5091 82.8081 39.5572C83.0076 39.6134 83.0557 39.7411 82.7551 41.0481L80.8493 49.3442C80.8494 49.3761 80.8335 49.4079 80.8256 49.4318L83.1983 43.4965C83.4681 42.8273 83.5873 42.6282 83.7947 42.6924C83.9623 42.7485 84.074 42.7966 83.5992 44.6932C83.3064 45.8647 82.8946 47.3468 82.4191 48.8608L78.6389 61.0122C77.9891 63.1158 77.4111 65.2275 77.2138 66.2875L76.0533 72.4005C75.6507 74.5126 73.9709 80.0585 73.3196 81.3967L71.4533 85.26C71.1356 85.9132 70.4855 87.8414 69.8516 89.945L66.1597 102.36C64.6069 107.571 64.3117 107.499 64.1522 107.451C64.1362 107.435 64.1043 107.419 64.0803 107.395ZM66.6506 96.3252C66.7465 96.421 66.739 96.7001 66.5018 97.752L64.596 106.048C64.5881 106.072 64.5881 106.088 64.5882 106.104C64.8896 105.291 65.3256 103.993 65.8406 102.247L69.5325 89.8328C70.1742 87.6733 70.8324 85.7691 71.158 85.092L73.0243 81.2287C73.6597 79.9064 75.3316 74.4163 75.7263 72.3281L76.8868 66.2152C77.092 65.1472 77.6621 63.0116 78.3198 60.9L82.0999 48.7486C82.726 46.7167 83.1852 45.0273 83.4145 43.9992L81.0418 49.9345C80.7799 50.5958 80.6687 50.7869 80.4613 50.7227C80.2778 50.6666 80.2059 50.5787 80.5143 49.2479L82.4201 40.9517C82.4201 40.9358 82.428 40.9119 82.428 40.896C82.1265 41.7086 81.6905 43.0074 81.1755 44.7524L77.4836 57.1671C76.8419 59.3266 76.1917 61.2388 75.8581 61.9079L73.9918 65.7712C73.3565 67.0935 71.6845 72.5836 71.2898 74.6718L70.1294 80.7847C69.9241 81.8527 69.3541 83.9883 68.6963 86.0999L64.9162 98.2513C64.2902 100.283 63.8309 101.973 63.6016 103.001L65.9743 97.0654C66.2362 96.4041 66.3474 96.213 66.5549 96.2772C66.5947 96.2852 66.6267 96.3012 66.6506 96.3252Z" fill="url(#paint3_linear_2_4394)"/>
<path d="M63.6992 108.223C63.5873 108.111 63.6027 107.808 63.8558 106.74L65.8329 98.1972C65.8566 98.0776 65.8803 97.974 65.9041 97.8863L63.3325 104.052C63.0547 104.714 62.9275 104.921 62.7201 104.841C62.5526 104.784 62.4249 104.736 62.9235 102.784C63.2162 101.581 63.6599 100.067 64.1512 98.5049L68.0903 86.0987C68.772 83.9632 69.3658 81.7878 69.579 80.6959L70.779 74.3677C71.1894 72.1839 72.9567 66.5186 73.6319 65.1884L75.5939 61.3253C75.9275 60.6721 76.6016 58.752 77.2592 56.5607L81.1101 43.8752C82.7186 38.5763 83.0456 38.6646 83.1972 38.7048C83.4046 38.7689 83.4527 38.9125 83.1443 40.2434L81.1672 48.7866C81.1355 48.8981 81.1198 49.0097 81.096 49.0974L83.6596 42.9392C83.9374 42.278 84.0646 42.0709 84.272 42.1511C84.4396 42.2072 84.5672 42.2553 84.0686 44.2077C83.7759 45.411 83.3323 46.925 82.8409 48.4868L78.9018 60.893C78.2202 63.0284 77.6263 65.2039 77.4131 66.2958L76.2132 72.624C75.8027 74.8077 74.0354 80.4731 73.3602 81.8033L71.3982 85.6664C71.0646 86.3195 70.3905 88.2397 69.7329 90.431L65.8821 103.116C64.2736 108.415 63.9465 108.327 63.7949 108.287C63.763 108.271 63.7311 108.255 63.6992 108.223ZM66.3485 96.8188C66.4444 96.9147 66.4449 97.2017 66.1919 98.2855L64.2148 106.829C64.1831 106.94 64.1673 107.036 64.1436 107.139C64.469 106.335 64.9447 104.948 65.539 103.012L69.3899 90.3267C70.0634 88.1195 70.7375 86.1834 71.087 85.4984L73.049 81.6352C73.7162 80.313 75.4517 74.7114 75.8702 72.5515L77.0621 66.2154C77.2674 65.1155 77.8771 62.9242 78.5587 60.7728L82.4978 48.3665C83.2112 46.1355 83.6941 44.3106 83.9154 43.2745L81.3518 49.4487C81.0581 50.1417 80.9388 50.293 80.7473 50.2289C80.5639 50.1727 80.4839 50.0769 80.8003 48.7061L82.7774 40.163C82.8091 40.0514 82.8248 39.9558 82.8406 39.8602C82.5152 40.6648 82.0395 42.0512 81.4452 43.9874L77.5943 56.6729C76.9207 58.8801 76.2467 60.8163 75.8972 61.5013L73.9352 65.3644C73.268 66.6866 71.5325 72.2882 71.114 74.4481L69.914 80.7763C69.7088 81.8761 69.0991 84.0675 68.4174 86.2189L64.4783 98.6251C63.765 100.856 63.2821 102.681 63.0608 103.717L65.6244 97.543C65.9181 96.8499 66.0374 96.6987 66.2288 96.7628C66.2927 96.7789 66.3166 96.7869 66.3485 96.8188Z" fill="url(#paint4_linear_2_4394)"/>
<path d="M63.2941 109.059C63.1823 108.947 63.1976 108.629 63.4587 107.521L65.515 98.7227C65.5624 98.5155 65.602 98.3482 65.6336 98.2047L62.879 104.57C62.5933 105.223 62.4581 105.438 62.2427 105.35C62.0672 105.286 61.9395 105.238 62.446 103.23C62.7546 101.994 63.2141 100.433 63.7293 98.8469L67.8434 86.2018C68.5568 84.0186 69.1745 81.7874 69.3876 80.6636L70.627 74.1203C71.0533 71.8568 72.8921 66.072 73.6071 64.7498L75.6728 60.8949C76.0144 60.2497 76.7442 58.2579 77.4257 56.0587L81.4435 43.0945C83.1076 37.7239 83.4586 37.8202 83.6182 37.8684C83.8335 37.9246 83.8817 38.0841 83.5653 39.4549L81.509 48.253C81.4616 48.4602 81.422 48.6276 81.3904 48.771L84.145 42.4059C84.4307 41.7527 84.5659 41.5377 84.7813 41.6258C84.9488 41.6819 85.0845 41.738 84.578 43.7462C84.2694 44.9814 83.8099 46.5432 83.2947 48.1288L79.1806 60.7739C78.4672 62.9571 77.8495 65.1884 77.6364 66.3121L76.397 72.8555C75.9707 75.119 74.1319 80.9038 73.4169 82.2259L71.3592 86.0729C71.0175 86.7181 70.2878 88.7099 69.6063 90.9091L65.5885 103.873C63.9243 109.244 63.5733 109.148 63.4138 109.099C63.358 109.107 63.3261 109.091 63.2941 109.059ZM66.0226 97.2886C66.1264 97.3924 66.1269 97.6794 65.866 98.8191L63.8096 107.617C63.7622 107.824 63.7226 107.992 63.691 108.135C64.0244 107.355 64.5638 105.889 65.2216 103.777L69.2393 90.8127C69.9447 88.5578 70.6505 86.5898 71.016 85.9048L73.0737 82.0578C73.7808 80.7436 75.5878 75.0226 76.0142 72.791L77.2536 66.2476C77.4667 65.1079 78.0923 62.8687 78.8057 60.6696L82.9198 48.0245C83.7125 45.6022 84.227 43.6339 84.4404 42.6217L81.6778 48.9948C81.3841 49.6719 81.2568 49.8311 81.0574 49.775C80.8739 49.7188 80.794 49.607 81.1182 48.1965L83.1825 39.3904C83.23 39.1832 83.2695 39.0158 83.3011 38.8724C82.9678 39.6531 82.4284 41.1191 81.7706 43.2306L77.7528 56.1948C77.0475 58.4498 76.3416 60.4178 75.9841 61.0948L73.9185 64.9497C73.2114 66.2639 71.4043 71.985 70.978 74.2166L69.7386 80.7599C69.5255 81.8997 68.8999 84.1388 68.1865 86.338L64.0724 98.9831C63.2797 101.405 62.7652 103.374 62.5518 104.386L65.3143 98.0128C65.6081 97.3356 65.7353 97.1764 65.9347 97.2326C65.9667 97.2486 65.9986 97.2646 66.0226 97.2886Z" fill="url(#paint5_linear_2_4394)"/>
<path d="M62.8811 109.904C62.7613 109.784 62.7766 109.449 63.0376 108.309L65.1732 99.2563C65.2444 98.9615 65.2838 98.7303 65.3233 98.547C65.3154 98.5709 65.3075 98.5948 65.2916 98.6108L62.3777 105.071C62.0998 105.685 61.9488 105.931 61.7254 105.851C61.5658 105.787 61.4142 105.731 61.9366 103.675C62.2611 102.408 62.7364 100.798 63.2835 99.181L67.5884 86.2971C68.3257 84.074 68.9752 81.795 69.1962 80.6314L70.4751 73.8569C70.9171 71.5138 72.8354 65.6175 73.5903 64.2874L75.7597 60.4566C76.1252 59.8195 76.8709 57.7958 77.5842 55.5488L81.7769 42.3138C83.5047 36.8637 83.8956 36.984 84.0471 37.0241C84.2545 37.0883 84.3187 37.2638 83.9864 38.6664L81.8588 47.7275C81.7876 48.0224 81.7482 48.2535 81.7087 48.4368C81.7166 48.4129 81.7245 48.389 81.7405 48.3731L84.6543 41.9126C84.9322 41.2992 85.0832 41.0524 85.3066 41.1325C85.4662 41.1966 85.6178 41.2527 85.0954 43.3087C84.7709 44.5758 84.2956 46.1854 83.7485 47.8028L79.4436 60.6868C78.7063 62.9098 78.0568 65.1888 77.8358 66.3524L76.557 73.1269C76.1149 75.4701 74.1966 81.3664 73.4417 82.6964L71.2723 86.5273C70.9068 87.1644 70.1611 89.1881 69.4478 91.4351L65.2552 104.67C63.5274 110.12 63.1365 110 62.9849 109.96C62.937 109.944 62.9051 109.928 62.8811 109.904ZM65.6806 97.7584C65.7925 97.8702 65.801 98.1812 65.5241 99.3367L63.3965 108.398C63.3253 108.693 63.278 108.932 63.2464 109.107C63.5878 108.366 64.1749 106.837 64.8962 104.55L69.0888 91.3148C69.826 89.0121 70.5636 87.0123 70.9451 86.3433L73.1224 82.5204C73.8694 81.2143 75.756 75.3817 76.1981 73.0704L77.461 66.2959C77.682 65.1164 78.3314 62.8214 79.0846 60.5825L83.3896 47.6985C84.2696 45.0771 84.8237 42.9733 85.0132 41.9851C85.0053 42.009 84.9894 42.0408 84.9735 42.0727L82.0597 48.5332C81.7659 49.1943 81.6148 49.3615 81.4233 49.2973C81.2318 49.2332 81.1518 49.0895 81.492 47.663L83.6196 38.6019C83.6908 38.3071 83.7382 38.068 83.7697 37.8926C83.4283 38.6335 82.8412 40.1632 82.12 42.45L77.9113 55.6849C77.1742 57.9877 76.4365 59.9875 76.0551 60.6565L73.8857 64.4873C73.1387 65.7934 71.2522 71.626 70.8101 73.9373L69.5313 80.7118C69.3102 81.8913 68.6608 84.1863 67.9076 86.4252L63.6026 99.3092C62.7226 101.931 62.1685 104.034 61.979 105.023C61.9869 104.999 62.0028 104.967 62.0187 104.935L64.9325 98.4745C65.2263 97.8134 65.3774 97.6462 65.5689 97.7104C65.6247 97.7184 65.6567 97.7344 65.6806 97.7584Z" fill="url(#paint6_linear_2_4394)"/>
<path d="M62.4283 110.74C62.3164 110.628 62.3078 110.285 62.5926 109.09L64.7994 99.774C64.8864 99.3835 64.9497 99.0966 64.9812 98.9053C64.9574 98.9611 64.9256 99.0089 64.8938 99.0726L61.8285 105.557C61.5426 106.162 61.3757 106.409 61.1522 106.313C60.9927 106.249 60.8251 106.177 61.3633 104.073C61.6957 102.766 62.2029 101.124 62.7738 99.4672L67.2697 86.3604C68.0467 84.0976 68.72 81.7628 68.949 80.5593L70.2672 73.5537C70.7251 71.1308 72.7308 65.1151 73.5257 63.8091L75.8147 60.0183C76.1962 59.3812 76.9896 57.3417 77.7268 55.0549L82.1103 41.5651C83.2914 37.9078 84.0933 36.1155 84.4682 36.2198C84.6676 36.276 84.7636 36.4197 84.4076 37.9259L82.2008 47.242C82.1058 47.6404 82.0506 47.9194 82.019 48.1107C82.0428 48.0549 82.0746 48.0071 82.0984 47.9354L85.1637 41.4513C85.4496 40.8459 85.6166 40.5991 85.84 40.6952C85.9995 40.7592 86.1671 40.8313 85.6289 42.9351C85.2965 44.242 84.7894 45.8835 84.2184 47.5408L79.7226 60.6476C78.9455 62.9104 78.2722 65.2452 78.0433 66.4486L76.725 73.4543C76.2672 75.8771 74.2614 81.8928 73.4666 83.1989L71.1775 86.9896C70.796 87.6268 70.0026 89.6663 69.2654 91.9531L64.8819 105.443C63.7008 109.1 62.899 110.893 62.524 110.788C62.4921 110.788 62.4522 110.764 62.4283 110.74ZM65.3227 98.2123C65.4345 98.3242 65.4431 98.6511 65.1664 99.8544L62.9595 109.171C62.8646 109.569 62.8093 109.848 62.7778 110.055C63.1273 109.354 63.7701 107.769 64.5628 105.331L68.9463 91.8409C69.7152 89.4904 70.4928 87.4667 70.8901 86.7978L73.1792 83.007C73.9581 81.7169 75.9401 75.7729 76.382 73.3819L77.7003 66.3762C77.9292 65.1568 78.6104 62.7982 79.3955 60.5274L83.8913 47.4206C84.8349 44.6558 85.4445 42.4006 85.6022 41.4282C85.5784 41.484 85.5466 41.5477 85.5148 41.6114L82.4495 48.0955C82.1398 48.7407 81.9966 48.9159 81.7892 48.8517C81.5977 48.7876 81.5098 48.6359 81.8578 47.1536L84.0646 37.8375C84.1595 37.4391 84.2148 37.1601 84.2463 36.9529C83.8968 37.6539 83.254 39.2392 82.4693 41.6695L78.0858 55.1592C77.3248 57.5018 76.5393 59.5334 76.1419 60.2023L73.8529 63.9931C73.074 65.2832 71.092 71.2272 70.65 73.6182L69.3318 80.6238C69.1029 81.8433 68.4216 84.2019 67.6366 86.4727L63.1407 99.5795C62.1972 102.344 61.5875 104.599 61.4219 105.564C61.4457 105.508 61.4775 105.444 61.5093 105.381L64.5746 98.8966C64.8843 98.2514 65.0275 98.0762 65.2349 98.1404C65.2668 98.1724 65.2988 98.1884 65.3227 98.2123Z" fill="url(#paint7_linear_2_4394)"/>
<path d="M61.9514 111.568C61.8316 111.448 61.823 111.106 62.1156 109.854L64.4097 100.259C64.5283 99.7734 64.5835 99.4466 64.615 99.2393C64.5753 99.311 64.5276 99.3907 64.488 99.4942L61.2712 105.986C60.9773 106.567 60.8104 106.83 60.571 106.734C59.8848 106.462 62.1608 99.9841 62.256 99.7133L66.9587 86.3836C67.7756 84.081 68.4647 81.6984 68.7095 80.4471L70.0672 73.1944C70.5328 70.6838 72.6421 64.5647 73.4688 63.2747L75.8775 59.5399C76.283 58.9109 77.1003 56.8474 77.8772 54.5208L82.4516 40.7763C83.2999 38.2346 84.4105 35.2389 84.921 35.3834C85.1284 35.4476 85.2324 35.5992 84.8606 37.1532L82.5665 46.7482C82.4479 47.2343 82.3927 47.5611 82.3612 47.7683C82.4009 47.6966 82.4486 47.617 82.4882 47.5134L85.705 41.0216C85.9989 40.4402 86.1658 40.1774 86.4052 40.2735C87.0835 40.5698 84.8154 47.0235 84.7202 47.2944L80.0175 60.6241C79.2086 62.9187 78.5035 65.3013 78.2667 66.5605L76.909 73.8133C76.4434 76.3238 74.3341 82.443 73.5074 83.733L71.0987 87.4677C70.6932 88.0968 69.8759 90.1602 69.099 92.4868L64.5246 106.231C63.6763 108.773 62.5657 111.769 62.0552 111.624C62.0233 111.608 61.9834 111.6 61.9514 111.568ZM64.9408 98.642C65.0606 98.7618 65.0772 99.0967 64.7766 100.34L62.4825 109.935C62.3639 110.437 62.3007 110.756 62.2772 110.971C62.6348 110.326 63.3253 108.693 64.1815 106.111L68.7559 92.3666C69.5487 89.9762 70.374 87.9208 70.7953 87.2599L73.204 83.5251C74.0308 82.251 76.0923 76.2115 76.5581 73.7329L77.9157 66.4801C78.1525 65.2209 78.8576 62.8064 79.6824 60.4959L84.3851 47.1662C85.424 44.2262 86.0573 41.8355 86.1912 40.9189C86.1514 40.9906 86.1117 41.0782 86.0561 41.1818L82.8394 47.6736C82.5296 48.3028 82.3625 48.4859 82.1551 48.4058C81.9716 48.3337 81.8596 48.174 82.2235 46.6439L84.5176 37.0649C84.6362 36.5628 84.6994 36.244 84.7229 36.0288C84.3653 36.6739 83.6748 38.3071 82.8186 40.8886L78.2442 54.6331C77.4514 57.0235 76.6261 59.0789 76.2048 59.7399L73.7961 63.4746C72.9693 64.7487 70.9078 70.7882 70.442 73.2669L69.0844 80.5196C68.8476 81.7788 68.1425 84.1933 67.3177 86.5039L62.615 99.8335C61.5761 102.774 60.9428 105.164 60.809 106.081C60.8487 106.009 60.8884 105.922 60.944 105.818L64.1607 99.3262C64.4705 98.6969 64.6376 98.5138 64.845 98.594C64.8849 98.602 64.9168 98.618 64.9408 98.642Z" fill="url(#paint8_linear_2_4394)"/>
<path d="M61.4666 112.388C61.3388 112.261 61.3302 111.902 61.6307 110.611L64.0119 100.737C64.1623 100.139 64.2174 99.7807 64.2329 99.5734C64.1853 99.653 64.1296 99.7566 64.0581 99.892L60.6739 106.375C60.38 106.925 60.1812 107.204 59.9498 107.1C59.2237 106.787 61.6824 99.9672 61.7142 99.9035L66.6398 86.367C67.4885 84.0325 68.2174 81.5942 68.4621 80.2951L69.8591 72.7953C70.3406 70.205 72.5453 63.9744 73.4199 62.7004L75.9563 59.0298C76.3777 58.4166 77.2428 56.3374 78.0516 53.963L82.8408 39.9717C83.5623 37.8762 84.8473 34.3706 85.4137 34.5391C85.6211 34.6033 85.741 34.7709 85.3534 36.3727L82.9722 46.2466C82.8298 46.8363 82.7667 47.2029 82.7511 47.4102C82.7988 47.3306 82.8544 47.227 82.926 47.0916L86.3102 40.6081C86.6041 40.0586 86.8029 39.7799 87.0343 39.884C87.7684 40.2202 85.3017 47.0164 85.2699 47.0801L80.3443 60.6166C79.4956 62.9511 78.7667 65.3894 78.53 66.6805L77.1329 74.1803C76.6515 76.7706 74.4468 83.0012 73.5722 84.2752L71.0358 87.9459C70.6144 88.559 69.7492 90.6383 68.9405 93.0127L64.1513 107.004C63.4297 109.099 62.1447 112.605 61.5783 112.437C61.5305 112.436 61.4986 112.42 61.4666 112.388ZM64.535 99.0637C64.6548 99.1835 64.6873 99.5344 64.3788 100.833L61.9976 110.707C61.8553 111.313 61.7842 111.672 61.7686 111.879C62.1263 111.297 62.8726 109.625 63.8083 106.9L68.5975 92.9084C69.438 90.4703 70.2951 88.3989 70.7404 87.746L73.2768 84.0753C74.1435 82.8252 76.3005 76.6902 76.7741 74.1239L78.1711 66.6241C78.4158 65.309 79.1606 62.8548 80.0093 60.5044L84.9349 46.9678C86.0771 43.8447 86.7341 41.3345 86.8361 40.4656C86.7884 40.5452 86.7328 40.6488 86.6533 40.7921L83.2691 47.2756C82.9434 47.8889 82.7683 48.064 82.5689 47.9919C82.3854 47.9198 82.2654 47.7362 82.6372 46.1662L85.0184 36.2924C85.1608 35.6867 85.2318 35.3281 85.2474 35.1208C84.8897 35.7022 84.1434 37.375 83.2078 40.1L78.4186 54.0912C77.578 56.5293 76.7209 58.6007 76.2756 59.2536L73.7392 62.9243C72.8725 64.1744 70.7155 70.3094 70.242 72.8758L68.8449 80.3755C68.6002 81.6906 67.8554 84.1448 67.0068 86.4952L62.0811 100.032C60.939 103.155 60.2819 105.665 60.1799 106.534C60.2276 106.454 60.2832 106.351 60.3627 106.207L63.7469 99.724C64.0726 99.1107 64.2477 98.9356 64.4471 99.0077C64.4791 99.0237 64.511 99.0397 64.535 99.0637Z" fill="url(#paint9_linear_2_4394)"/>
<path d="M60.95 113.209C60.8222 113.081 60.7896 112.698 61.1219 111.359L63.5903 101.207C63.7644 100.505 63.8194 100.115 63.835 99.9076C63.7793 99.9793 63.7078 100.099 63.6204 100.266L60.0528 106.725C59.7667 107.251 59.5441 107.538 59.3047 107.425C58.5306 107.081 61.1167 100.118 61.1404 100.046L66.2969 86.3266C67.1854 83.9523 67.9461 81.4662 68.1987 80.1273L69.6431 72.3565C70.1403 69.6706 72.4405 63.3445 73.3789 62.1025L76.059 58.5278C76.5124 57.9307 77.4093 55.8355 78.2579 53.4213L83.2619 39.1993C83.8646 37.4942 85.3242 33.5584 85.9464 33.735C86.1538 33.7991 86.2897 33.9828 85.8863 35.6483L83.4179 45.8011C83.2438 46.5024 83.1887 46.8929 83.1732 47.1002C83.2288 47.0285 83.3004 46.9091 83.3878 46.7418L86.9554 40.2826C87.2414 39.7569 87.4641 39.4703 87.7035 39.5824C88.4775 39.9267 85.8915 46.89 85.8677 46.9617L80.7192 60.6892C79.8308 63.0635 79.0701 65.5495 78.8174 66.8885L77.3731 74.6593C76.8759 77.3452 74.5757 83.6713 73.6372 84.9133L70.9571 88.488C70.5038 89.0851 69.6068 91.1803 68.7583 93.5945L63.7462 107.809C63.1435 109.514 61.6839 113.449 61.0617 113.273C61.0218 113.249 60.9819 113.241 60.95 113.209ZM64.1132 99.4537C64.241 99.5815 64.2736 99.9483 63.9492 101.295L61.4809 111.448C61.3068 112.165 61.2517 112.556 61.2282 112.755C61.586 112.237 62.388 110.541 63.3952 107.68L68.3992 93.4582C69.2716 90.9724 70.1765 88.8852 70.6457 88.2562L73.3258 84.6815C74.2404 83.4634 76.4929 77.2328 76.9902 74.5788L78.4346 66.808C78.6872 65.4531 79.4558 62.9432 80.3522 60.545L85.5007 46.8175C86.7382 43.5191 87.4269 40.8814 87.4812 40.0763C87.4255 40.1639 87.346 40.2753 87.2507 40.4506L83.6831 46.9098C83.3573 47.5071 83.1663 47.6822 82.9588 47.6021C82.7753 47.53 82.6394 47.3304 83.027 45.7126L85.4954 35.5599C85.6695 34.8427 85.7245 34.4521 85.7481 34.2528C85.3903 34.7704 84.5882 36.4671 83.5811 39.3274L78.577 53.5495C77.7047 56.0354 76.7997 58.1226 76.3305 58.7515L73.6504 62.3263C72.7358 63.5444 70.4833 69.7749 69.986 72.4289L68.5417 80.1997C68.2891 81.5546 67.5204 84.0646 66.624 86.4627L61.4756 100.19C60.238 103.489 59.5494 106.126 59.4951 106.931C59.5507 106.844 59.6302 106.732 59.7256 106.557L63.2932 100.098C63.619 99.5006 63.81 99.3256 64.0174 99.4057C64.0573 99.4137 64.0812 99.4217 64.1132 99.4537Z" fill="url(#paint10_linear_2_4394)"/>
<path d="M60.4013 113.997C60.2655 113.861 60.2329 113.463 60.5651 112.076L63.1286 101.636C63.3343 100.808 63.3814 100.409 63.3811 100.218C63.3254 100.289 63.2379 100.409 63.1187 100.608L59.3676 107.011C59.0736 107.513 58.8429 107.807 58.5955 107.687C58.5716 107.679 58.5636 107.671 58.5476 107.655C57.8926 107 60.4789 100.196 60.5107 100.133L65.906 86.2222C66.8343 83.8242 67.6348 81.2823 67.8873 79.8955L69.371 71.8617C69.884 69.0802 72.2956 62.6586 73.274 61.4566L76.1058 57.9858C76.5751 57.4046 77.5199 55.2936 78.4162 52.8477L83.683 38.4108C84.3096 36.6978 85.8169 32.7302 86.487 32.9388C86.6945 33.0029 86.8463 33.2026 86.435 34.9239L83.8715 45.3635C83.6657 46.1923 83.6186 46.5908 83.619 46.7822C83.6747 46.7105 83.7622 46.5911 83.8814 46.392L87.6325 39.9889C87.9265 39.4872 88.1572 39.1926 88.4046 39.3127C88.4285 39.3207 88.4365 39.3287 88.4525 39.3447C89.1075 39.9997 86.5212 46.8036 86.4894 46.8673L81.0941 60.7777C80.1658 63.1758 79.3653 65.7176 79.1128 67.1044L77.6291 75.1382C77.1161 77.9197 74.7044 84.3413 73.7261 85.5434L70.8943 89.0142C70.425 89.5953 69.4802 91.7063 68.5839 94.1523L63.3411 108.597C62.7144 110.31 61.2071 114.278 60.537 114.069C60.4732 114.053 60.4412 114.037 60.4013 113.997ZM63.6514 99.8196C63.7872 99.9554 63.8358 100.338 63.4955 101.733L60.932 112.172C60.7263 113.017 60.6792 113.416 60.6796 113.607C61.0455 113.161 61.9033 111.441 62.9741 108.469L68.2169 94.024C69.129 91.4984 70.0818 89.3953 70.5829 88.7824L73.4147 85.3116C74.3692 84.1334 76.7412 77.8154 77.2462 75.0737L78.73 67.0399C78.9825 65.6371 79.7909 63.0714 80.7271 60.6494L86.1224 46.739C87.4474 43.3212 88.1836 40.5241 88.1902 39.7667C88.1265 39.8463 88.039 39.9658 87.9278 40.1728L84.1767 46.5759C83.8429 47.1493 83.636 47.3244 83.4285 47.2442C83.237 47.1641 83.0851 46.9486 83.4966 45.2751L86.0601 34.8355C86.2658 33.9908 86.3129 33.5922 86.3125 33.4009C85.9466 33.8467 85.0888 35.5672 84.0181 38.539L78.7912 52.9839C77.8791 55.5096 76.9263 57.6126 76.4252 58.2256L73.5934 61.6964C72.6389 62.8746 70.2669 69.1925 69.7618 71.9342L68.2781 79.968C68.0176 81.3787 67.2172 83.9365 66.281 86.3585L60.8857 100.269C59.5607 103.687 58.8245 106.484 58.8179 107.241C58.8815 107.162 58.969 107.042 59.0802 106.835L62.8314 100.432C63.1651 99.8586 63.3721 99.6836 63.5795 99.7637C63.6035 99.7717 63.6274 99.7957 63.6514 99.8196Z" fill="url(#paint11_linear_2_4394)"/>
<path d="M59.8288 114.777C59.685 114.634 59.6443 114.211 59.9924 112.777L62.659 102.042C62.8964 101.102 62.9196 100.679 62.9192 100.504C62.8556 100.568 62.7601 100.695 62.625 100.91L58.6744 107.241C58.3724 107.719 58.1258 108.013 57.8784 107.877C57.1841 107.533 58.9206 102.506 59.8729 100.131L65.531 86.0701C66.5071 83.6402 67.3394 81.0506 67.5998 79.624L69.1308 71.3032C69.6596 68.426 72.1906 61.917 73.2249 60.7549L76.2084 57.4199C76.7017 56.8628 77.7023 54.7439 78.6304 52.2661L84.128 37.6303C84.6277 36.2839 86.3257 31.918 87.0597 32.1585C87.2751 32.2307 87.4508 32.4383 87.0077 34.2234L84.3411 44.9578C84.1037 45.8981 84.0806 46.3206 84.0809 46.496C84.1446 46.4324 84.24 46.305 84.3752 46.09L88.3177 39.751C88.6198 39.2732 88.8664 38.9787 89.1138 39.1147C89.8001 39.4668 88.0715 44.4864 87.1193 46.8606L81.4611 60.9219C80.4851 63.3518 79.6528 65.9414 79.3924 67.368L77.8614 75.6888C77.3326 78.566 74.8015 85.075 73.7673 86.2371L70.7837 89.5721C70.2905 90.1293 69.2899 92.2481 68.3617 94.7259L62.8802 109.378C62.3804 110.724 60.6825 115.09 59.9485 114.849C59.9006 114.833 59.8607 114.809 59.8288 114.777ZM63.1817 100.146C63.3254 100.289 63.374 100.688 63.026 102.139L60.3594 112.873C60.122 113.845 60.0909 114.26 60.0992 114.427C60.4573 114.053 61.3789 112.333 62.5371 109.241L68.0187 94.5897C68.9786 92.0323 69.9791 89.9134 70.5042 89.3244L73.4877 85.9894C74.5061 84.8592 76.9736 78.4617 77.4945 75.6243L79.0255 67.3036C79.2939 65.853 80.1261 63.2315 81.1181 60.7857L86.7762 46.7244C88.2125 43.1473 88.9724 40.2147 88.9392 39.529C88.8755 39.5926 88.7801 39.72 88.629 39.951L84.6785 46.2819C84.3923 46.7438 84.1537 47.0144 83.9063 46.9103C83.7148 46.8302 83.5469 46.5987 83.9742 44.8614L86.6408 34.127C86.8782 33.1548 86.9093 32.7403 86.901 32.5728C86.5429 32.9469 85.6213 34.6673 84.4631 37.7585L78.9815 52.4102C78.0216 54.9677 77.021 57.0866 76.4959 57.6756L73.5124 61.0106C72.494 62.1408 70.0265 68.5383 69.5057 71.3757L67.9746 79.6964C67.7063 81.147 66.8741 83.7685 65.8821 86.2143L60.224 100.276C58.7876 103.853 58.0278 106.785 58.061 107.471C58.1246 107.407 58.2201 107.28 58.3711 107.049L62.3217 100.718C62.6078 100.256 62.8465 99.9856 63.0939 100.09C63.1258 100.106 63.1577 100.122 63.1817 100.146Z" fill="url(#paint12_linear_2_4394)"/>
<path d="M59.2243 115.542C59.0725 115.39 59.0159 114.951 59.3878 113.461L62.1575 102.432C62.4265 101.348 62.4337 100.926 62.4175 100.782C62.3618 100.838 62.2503 100.949 62.0834 101.196L57.9174 107.423C57.647 107.821 57.3607 108.171 57.0893 108.027C57.0654 108.019 57.0494 108.003 57.0414 107.995C56.4344 107.388 58.2347 102.361 59.1792 100.106L65.1161 85.8939C66.14 83.4482 67.012 80.8028 67.2803 79.3204L68.8586 70.7127C69.4111 67.7319 72.0536 61.1434 73.1598 60.0372L76.319 56.862C76.8442 56.3368 77.8846 54.21 78.8526 51.7084L84.589 36.8658C85.1047 35.5194 86.8664 31.1536 87.6562 31.4022C87.8795 31.4664 88.0713 31.706 87.6124 33.5548L84.8427 44.584C84.5737 45.6678 84.5665 46.0903 84.5827 46.2339C84.6384 46.1782 84.7498 46.0668 84.9168 45.8199L89.0828 39.593C89.3531 39.1949 89.6395 38.8446 89.9109 38.9887C90.6611 39.3887 88.7893 44.5994 87.829 46.9177L81.9 61.1221C80.8761 63.5678 80.0041 66.2131 79.7358 67.6956L78.1575 76.3032C77.605 79.284 74.9625 85.8726 73.8564 86.9787L70.6971 90.1539C70.1719 90.6791 69.1394 92.798 68.1635 95.3076L62.4272 110.15C61.9115 111.497 60.1497 115.862 59.3599 115.614C59.2961 115.598 59.2562 115.574 59.2243 115.542ZM62.672 100.448C62.8317 100.607 62.8884 101.062 62.5164 102.52L59.7467 113.549C59.4698 114.657 59.4546 115.072 59.4788 115.223C59.8291 114.937 60.8304 113.217 62.0602 110.022L67.7965 95.1793C68.8042 92.59 69.8526 90.4712 70.4096 89.8983L73.5689 86.7231C74.6432 85.6487 77.2301 79.1797 77.7667 76.2467L79.3451 67.639C79.6213 66.1327 80.5012 63.4634 81.533 60.9938L87.4699 46.7655C89.0335 43.0133 89.817 39.9771 89.7202 39.355C89.6645 39.4107 89.5451 39.5301 89.3702 39.7849L85.2042 46.0118C84.9498 46.394 84.6793 46.7284 84.4001 46.6083C84.1766 46.5122 84.0405 46.185 84.4598 44.4717L87.2295 33.4425C87.5065 32.3348 87.5216 31.9202 87.4974 31.7687C87.1472 32.0551 86.1458 33.7753 84.9161 36.9701L79.1797 51.8126C78.172 54.4019 77.1236 56.5207 76.5666 57.0937L73.4074 60.2689C72.3331 61.3432 69.7461 67.8123 69.2095 70.7453L67.6312 79.3529C67.3549 80.8593 66.475 83.5285 65.4432 85.9982L59.5143 100.203C57.9507 103.955 57.1671 106.991 57.264 107.613C57.3197 107.557 57.439 107.438 57.6139 107.183L61.78 100.956C62.0344 100.574 62.3048 100.24 62.5841 100.36C62.6161 100.392 62.64 100.416 62.672 100.448Z" fill="url(#paint13_linear_2_4394)"/>
<path d="M58.5798 116.266C58.4041 116.09 58.3633 115.604 58.7431 114.09L61.6239 102.758C61.9404 101.515 61.9158 101.108 61.8836 100.98C61.8279 101.02 61.7085 101.124 61.5176 101.394L57.1281 107.493C56.8578 107.859 56.5555 108.21 56.2761 108.058C55.5738 107.658 57.0959 103.084 58.4533 99.9374L64.6691 85.6219C65.7408 83.1604 66.6446 80.4672 66.9287 78.937L68.5623 70.0185C69.1305 66.9261 71.9085 60.282 73.0785 59.2398L76.4135 56.2562C76.9627 55.7709 78.059 53.6522 79.0747 51.1188L85.0898 36.1093C85.4707 35.1533 87.431 30.3813 88.2926 30.6699C88.5479 30.7501 88.7239 31.0853 88.249 32.9182L85.3683 44.2501C85.0517 45.4933 85.0764 45.8999 85.1085 46.0275C85.1642 45.9878 85.2836 45.8844 85.4745 45.6136L89.864 39.5147C90.1344 39.1485 90.4367 38.7983 90.716 38.9503C91.4184 39.3662 89.8962 43.9238 88.5388 47.0705L82.3231 61.3859C81.2434 63.8555 80.3475 66.5406 80.0634 68.0709L78.4298 76.9894C77.8616 80.0818 75.0837 86.7259 73.9136 87.7681L70.5786 90.7516C70.0294 91.2369 68.9332 93.3557 67.9174 95.8891L61.9103 110.907C61.5294 111.863 59.5691 116.635 58.7075 116.346C58.6596 116.33 58.6197 116.306 58.5798 116.266ZM62.1382 100.694C62.306 100.862 62.3786 101.332 61.9828 102.862L59.1021 114.194C58.7856 115.453 58.8102 115.86 58.8344 115.979C59.137 115.789 60.1309 114.363 61.5672 110.77L67.5823 95.7609C68.6378 93.1398 69.742 91.0132 70.3389 90.4801L73.6739 87.4966C74.8042 86.4941 77.5186 79.9615 78.0709 76.917L79.7045 67.9984C79.9886 66.4363 80.9083 63.7273 81.9879 61.2258L88.2036 46.9104C89.958 42.8874 90.6857 39.8113 90.5413 39.3007C90.4855 39.3405 90.3661 39.4439 90.1673 39.7226L85.7778 45.8215C85.5234 46.1718 85.229 46.5141 84.9497 46.378C84.7342 46.274 84.5582 45.9229 85.0173 44.1537L87.898 32.8218C88.2146 31.5627 88.1899 31.156 88.1657 31.0364C87.8631 31.2272 86.8692 32.6525 85.4329 36.2455L79.4178 51.255C78.3623 53.876 77.2581 56.0027 76.6612 56.5357L73.3262 59.5193C72.1959 60.5217 69.4815 67.0543 68.9292 70.0989L67.2956 79.0174C67.0115 80.5796 66.0918 83.2886 65.0122 85.79L58.7965 100.105C57.0421 104.128 56.3144 107.205 56.4588 107.715C56.5146 107.675 56.634 107.572 56.8328 107.293L61.2223 101.194C61.4767 100.844 61.7711 100.502 62.0504 100.638C62.0743 100.646 62.1063 100.662 62.1382 100.694Z" fill="url(#paint14_linear_2_4394)"/>
<path d="M57.9114 116.966C57.7277 116.783 57.663 116.272 58.0666 114.702L61.0584 103.068C61.4225 101.665 61.342 101.266 61.302 101.178C61.2542 101.194 61.1348 101.282 60.9041 101.576L56.2751 107.499C56.0206 107.834 55.6784 108.192 55.3911 108.016C54.6328 107.56 56.2265 102.899 57.6716 99.7126L64.1981 85.31C65.3256 82.8246 66.2692 80.0917 66.5612 78.5057L68.242 69.2683C68.8259 66.0644 71.7473 59.3567 72.9812 58.3944L76.508 55.6344C77.0892 55.1811 78.2333 53.0784 79.3048 50.5211L85.6146 35.3608C86.0114 34.4048 88.0435 29.6568 88.961 29.9695C89.2243 30.0577 89.4242 30.4009 88.9335 32.3134L85.9417 43.9481C85.5776 45.3506 85.6581 45.7494 85.6981 45.8372C85.746 45.8214 85.8654 45.7339 86.096 45.4393L90.7251 39.5163C90.9796 39.1819 91.3217 38.8238 91.6091 38.9997C92.3594 39.4476 90.7736 44.1167 89.3285 47.3031L82.802 61.7057C81.6746 64.191 80.731 66.924 80.439 68.51L78.7582 77.7473C78.1742 80.9513 75.2529 87.6589 74.0189 88.6213L70.4921 91.3812C69.911 91.8346 68.7669 93.9373 67.6953 96.4945L61.3855 111.655C60.9887 112.611 58.9566 117.359 58.0391 117.046C57.9913 117.03 57.9514 117.006 57.9114 116.966ZM61.5725 100.892C61.7163 101.036 61.8527 101.474 61.4173 103.156L58.4256 114.791C58.0536 116.233 58.134 116.6 58.166 116.696C58.4529 116.601 59.5107 115.223 61.0504 111.511L67.3602 96.3504C68.4634 93.6975 69.6315 91.5869 70.2604 91.0858L73.7871 88.3259C74.9813 87.3873 77.8232 80.8231 78.3993 77.6749L80.0801 68.4376C80.372 66.8196 81.3315 64.0549 82.4669 61.5456L88.9934 47.143C90.8672 43.0007 91.6185 39.7571 91.4183 39.3182C91.3626 39.3421 91.2431 39.4295 91.0045 39.7321L86.3755 45.6551C86.1289 45.9656 85.8107 46.3158 85.5154 46.1638C85.3797 46.0917 85.0366 45.9237 85.5748 43.8358L88.5746 32.2091C88.9466 30.7667 88.8661 30.3998 88.8341 30.3041C88.5472 30.3992 87.4894 31.7765 85.9497 35.489L79.6479 50.6573C78.5447 53.3102 77.3766 55.4208 76.7477 55.9219L73.221 58.6818C72.0268 59.6204 69.1849 66.1846 68.6088 69.3328L66.928 78.5701C66.6361 80.1881 65.6766 82.9528 64.5412 85.4621L58.0147 99.8647C56.1409 104.007 55.3896 107.251 55.5898 107.689C55.6455 107.666 55.765 107.578 56.0036 107.276L60.6326 101.353C60.8792 101.042 61.1974 100.692 61.4927 100.844C61.5087 100.844 61.5406 100.86 61.5725 100.892Z" fill="url(#paint15_linear_2_4394)"/>
<path d="M57.1872 117.627C56.9955 117.435 56.9147 116.893 57.3421 115.251L60.4529 103.306C60.8962 101.584 60.7043 101.313 60.6883 101.297C60.6883 101.297 60.5608 101.313 60.2585 101.679L55.366 107.402C55.1194 107.697 54.7534 108.063 54.442 107.863C54.4261 107.847 54.4021 107.839 54.3941 107.831C53.6992 107.136 55.3647 102.451 56.8179 99.3841L63.6792 84.9343C64.8624 82.441 65.8538 79.6604 66.1457 78.0265L67.8816 68.4305C68.4971 65.0352 71.5222 58.3836 72.8679 57.4852L76.6025 54.9808C77.2156 54.5754 78.4236 52.4888 79.5349 49.9077L86.1474 34.6203C86.3935 34.0387 88.6402 28.9324 89.6534 29.2931C89.9167 29.3813 90.1565 29.7485 89.6421 31.7487L86.5393 43.7021C86.096 45.4233 86.2879 45.6948 86.3039 45.7108C86.3039 45.7108 86.4314 45.6951 86.7337 45.3289L91.6262 39.6056C91.8728 39.3111 92.2388 38.9451 92.5502 39.145C92.5661 39.1609 92.5901 39.169 92.5981 39.1769C93.293 39.8719 91.6275 44.5568 90.1743 47.6236L83.313 62.0733C82.1298 64.5666 81.1384 67.3473 80.8465 68.9811L79.1265 78.5453C78.511 81.9405 75.4859 88.5922 74.1402 89.4905L70.4056 91.9949C69.7925 92.4004 68.5845 94.487 67.4732 97.0681L60.8368 112.379C60.5907 112.961 58.3441 118.067 57.3308 117.707C57.283 117.691 57.2351 117.675 57.1872 117.627ZM60.9589 101.042C61.1107 101.194 61.271 101.657 60.8119 103.41L57.7011 115.355C57.2341 117.132 57.4578 117.372 57.4578 117.372C57.7289 117.388 58.914 115.9 60.5017 112.235L67.1142 96.9478C68.2732 94.2712 69.513 92.1687 70.1739 91.7155L73.9084 89.2111C75.1347 88.3842 78.1597 81.6848 78.7357 78.5047L80.4797 68.9326C80.7795 67.2589 81.7867 64.4464 82.9779 61.9292L89.8392 47.4794C91.9119 43.1222 92.647 39.767 92.3514 39.4555C92.3435 39.4635 92.2239 39.4872 91.9137 39.8454L87.0212 45.5686C86.7825 45.8392 86.4403 46.1814 86.145 46.0294C86.0014 45.9494 85.6342 45.7573 86.1962 43.5978L89.2911 31.6523C89.7581 29.8753 89.5344 29.6357 89.5344 29.6357C89.2633 29.6192 88.0782 31.1079 86.4905 34.7724L79.878 50.0598C78.719 52.7365 77.4872 54.8469 76.8183 55.2922L73.0838 57.7966C71.8575 58.6234 68.8325 65.3229 68.2565 68.5029L66.5365 78.0671C66.2366 79.7408 65.2294 82.5533 64.0382 85.0705L57.1769 99.5203C55.1042 103.877 54.3691 107.233 54.6647 107.544C54.6726 107.536 54.7922 107.513 55.1025 107.154L59.995 101.431C60.2336 101.16 60.5758 100.818 60.8711 100.97C60.8871 100.986 60.927 101.01 60.9589 101.042Z" fill="url(#paint16_linear_2_4394)"/>
<path d="M56.4388 118.247C56.2391 118.048 56.1265 117.489 56.5777 115.76L59.8154 103.496C60.235 101.894 60.1065 101.4 60.0347 101.376C60.0347 101.376 59.915 101.351 59.5729 101.71L54.4009 107.185C54.2577 107.344 53.7961 107.822 53.4449 107.582C52.6545 107.03 54.1131 102.552 55.924 98.9042L63.1281 84.4311C64.3751 81.938 65.4063 79.1176 65.714 77.4199L67.4892 67.513C68.1204 63.9902 71.3049 57.307 72.7385 56.5125L76.7048 54.3035C77.3499 53.9459 78.6137 51.8834 79.7808 49.2944L86.744 33.912C87.927 31.3071 89.5878 28.3683 90.4096 28.6648C90.6808 28.761 90.9686 29.1283 90.4144 31.2321L87.1767 43.4961C86.7571 45.0979 86.8856 45.5765 86.9574 45.6165C86.9574 45.6165 87.0771 45.6406 87.4192 45.2825L92.5912 39.807C92.7344 39.6478 93.196 39.1703 93.5472 39.4101C94.3455 39.9538 92.879 44.4397 91.0681 48.0879L83.864 62.5609C82.617 65.054 81.5858 67.8745 81.2781 69.5721L79.5029 79.479C78.8717 83.0018 75.6872 89.685 74.2536 90.4796L70.2873 92.6886C69.6422 93.0461 68.3784 95.1087 67.2113 97.6977L60.264 113.08C59.081 115.685 57.4202 118.624 56.5985 118.327C56.5346 118.311 56.4868 118.295 56.4388 118.247ZM60.3132 101.113C60.473 101.273 60.6573 101.759 60.1744 103.584L56.9366 115.848C56.43 117.761 56.7014 117.969 56.7094 117.977C56.9089 118.049 58.1027 116.951 59.9209 112.928L66.8602 97.5535C68.0988 94.8132 69.3626 92.7825 70.1033 92.3773L74.0696 90.1683C75.3678 89.4452 78.5443 82.7221 79.1361 79.4305L80.9113 69.5236C81.2189 67.7941 82.2739 64.9338 83.5289 62.4168L90.733 47.9437C92.9014 43.6026 93.7237 39.9686 93.3326 39.7366C93.3326 39.7366 93.2129 39.7125 92.8549 40.0865L87.6828 45.5621C87.5476 45.7133 87.1179 46.159 86.7667 45.9669C86.6311 45.8949 86.216 45.655 86.8018 43.4237L90.0635 31.1517C90.5701 29.2392 90.3066 29.0234 90.2907 29.0234C90.0912 28.9512 88.8974 30.0492 87.0792 34.0721L80.1319 49.4545C78.8934 52.1948 77.6295 54.2255 76.8888 54.6307L72.9304 56.8317C71.6322 57.5548 68.4558 64.2779 67.864 67.5696L66.0888 77.4764C65.7811 79.206 64.7261 82.0662 63.4712 84.5833L56.2671 99.0563C54.1067 103.405 53.2684 107.023 53.6675 107.263C53.6675 107.263 53.7871 107.288 54.1452 106.914L59.3013 101.454C59.4366 101.303 59.8663 100.857 60.2174 101.049C60.2494 101.065 60.2813 101.081 60.3132 101.113Z" fill="url(#paint17_linear_2_4394)"/>
<path d="M55.6507 118.812C55.3471 118.508 55.3854 117.655 55.7733 116.213L59.146 103.638C59.6844 101.614 59.3491 101.39 59.3411 101.382C59.3012 101.358 59.1418 101.39 58.8394 101.676L53.3718 106.856C53.2126 106.999 52.7431 107.453 52.3838 107.189C51.5375 106.55 53.0596 101.976 54.9822 98.3283L62.561 83.8798C63.8639 81.3948 64.9507 78.5346 65.2664 76.7812L67.0967 66.5156C67.7436 62.8653 71.1035 56.1665 72.617 55.4996L76.8232 53.6259C77.5082 53.3243 78.8359 51.2937 80.0668 48.7049L87.3647 33.2593C88.5797 30.6864 90.3203 27.7955 91.2059 28.1241C91.6607 28.2924 91.6703 29.1774 91.2349 30.8269L87.8622 43.4017C87.3238 45.4258 87.6591 45.6496 87.6671 45.6576C87.707 45.6816 87.8664 45.65 88.1689 45.3636L93.6364 40.1836C93.7956 40.0404 94.2651 39.5868 94.6244 39.8506C95.4707 40.474 93.9486 45.0635 92.026 48.7115L84.4472 63.1599C83.1364 65.637 82.0415 68.4892 81.7339 70.2506L79.9035 80.5161C79.2566 84.1665 75.8968 90.8653 74.3832 91.5321L70.1771 93.4058C69.492 93.7075 68.1643 95.738 66.9334 98.3269L59.6355 113.772C58.4205 116.345 56.6799 119.236 55.7943 118.908C55.7385 118.884 55.6906 118.852 55.6507 118.812ZM59.6276 101.128C59.7954 101.295 60.0116 101.814 59.497 103.718L56.1243 116.293C55.5701 118.365 55.9212 118.557 55.9212 118.557C56.2244 118.669 57.5374 117.34 59.3083 113.604L66.6062 98.1588C67.9086 95.4027 69.2522 93.404 70.0329 93.0547L74.239 91.1811C75.6172 90.5698 78.9451 83.839 79.5526 80.4357L81.3829 70.1702C81.7064 68.3769 82.8012 65.4769 84.1199 62.9599L91.6988 48.5115C94.0026 44.1149 94.8089 40.4489 94.3937 40.1132C94.3697 40.0893 94.2103 40.1049 93.884 40.4152L88.4164 45.5952C88.2732 45.7385 87.8355 46.1443 87.4763 45.9283C87.3326 45.8483 86.8856 45.5764 87.5032 43.2655L90.8759 30.6907C91.4301 28.6188 91.0869 28.4348 91.0789 28.4268C90.7757 28.3146 89.4627 29.6436 87.6918 33.3795L80.3939 48.8251C79.0916 51.5812 77.7479 53.5798 76.9672 53.9292L72.7611 55.8028C71.383 56.4141 68.055 63.1449 67.4476 66.5482L65.6172 76.8137C65.2937 78.607 64.1989 81.507 62.8802 84.024L55.3014 98.4724C53.0213 102.813 52.1911 106.471 52.5825 106.863C52.5905 106.871 52.5905 106.871 52.5985 106.879C52.6224 106.903 52.7819 106.887 53.1082 106.577L58.5757 101.397C58.719 101.253 59.1567 100.848 59.5159 101.064C59.5558 101.072 59.5957 101.096 59.6276 101.128Z" fill="url(#paint18_linear_2_4394)"/>
<path d="M54.7985 119.312C54.463 118.977 54.5091 118.084 54.9129 116.578L58.4205 103.677C58.8798 102.003 58.7511 101.381 58.5994 101.293C58.5276 101.253 58.3523 101.285 58.0577 101.531L52.2786 106.368C51.8328 106.734 51.4901 106.821 51.2505 106.613C50.3482 105.87 51.9737 101.145 53.9682 97.569L61.9378 83.193C63.3124 80.7161 64.4471 77.8241 64.7785 76.0069L66.656 65.3588C67.3265 61.5729 70.8618 54.8904 72.4713 54.3513L76.9333 52.8767C77.523 52.6865 78.8355 51.0864 80.3446 48.0596L88.0092 32.5988C89.2721 30.0578 91.0766 27.2309 92.0261 27.5915C92.5367 27.7838 92.5464 28.7166 92.0793 30.4299L88.5716 43.3313C88.1124 45.0047 88.2331 45.6188 88.3927 45.7148C88.4646 45.7548 88.6399 45.7233 88.9344 45.4767L94.7136 40.6401C95.1594 40.2742 95.5021 40.1871 95.7416 40.3949C96.644 41.138 95.0184 45.8629 93.024 49.4389L85.0544 63.8148C83.6797 66.2918 82.5451 69.1838 82.2136 71.001L80.3282 81.6252C79.6576 85.411 76.1223 92.0935 74.5128 92.6327L70.0508 94.1072C69.4612 94.2974 68.1487 95.8975 66.6395 98.9243L58.9749 114.385C57.712 116.926 55.9075 119.753 54.9581 119.392C54.9102 119.392 54.8464 119.36 54.7985 119.312ZM58.878 101.046C59.2135 101.382 59.1754 102.299 58.7795 103.781L55.2639 116.674C54.7809 118.435 54.9494 119.018 55.085 119.074C55.476 119.226 56.8765 117.794 58.6398 114.241L66.3044 98.7802C67.6785 96.0162 69.094 94.0576 69.9306 93.7801L74.3926 92.3056C75.7312 91.8616 79.2908 85.3784 79.9613 81.5767L81.8468 70.9524C82.1781 69.0874 83.3287 66.1636 84.7192 63.6547L92.6888 49.2788C94.9534 45.193 96.0063 41.2006 95.511 40.7054C95.503 40.6974 95.503 40.6974 95.495 40.6894C95.4312 40.6414 95.2558 40.673 94.9374 40.9435L89.1583 45.78C88.7602 46.1142 88.4335 46.2012 88.1861 46.0493C87.771 45.7774 87.7692 44.8366 88.2047 43.2509L91.7124 30.3495C92.1954 28.5884 92.0269 28.0061 91.8833 27.9579C91.4923 27.8057 90.0918 29.2382 88.3285 32.7907L80.6639 48.2516C79.2898 51.0155 77.8743 52.9742 77.0377 53.2517L72.5757 54.7262C71.2371 55.1701 67.6775 61.6533 67.007 65.4551L65.1215 76.0793C64.7902 77.9443 63.6316 80.8761 62.2491 83.377L54.2795 97.7529C52.0149 101.839 50.962 105.831 51.4573 106.326C51.4653 106.334 51.4653 106.334 51.4733 106.342C51.5371 106.39 51.7125 106.359 52.0309 106.088L57.81 101.252C58.208 100.918 58.5348 100.83 58.7822 100.982C58.8301 100.998 58.854 101.022 58.878 101.046Z" fill="url(#paint19_linear_2_4394)"/>
<path d="M53.9143 119.749C53.5469 119.382 53.5849 118.417 54.0046 116.879L57.6551 103.659C58.1065 102.026 58.0174 101.268 57.8098 101.124C57.706 101.052 57.4909 101.123 57.2281 101.306L51.1054 105.736C50.6436 106.07 50.2849 106.125 50.0373 105.893C50.0293 105.885 50.0293 105.885 50.0213 105.877C49.1906 105.046 50.5695 100.6 52.8742 96.6659L61.2666 82.3944C62.713 79.9415 63.9034 77.0257 64.2347 75.1288L66.1753 64.114C66.8142 60.4876 70.4607 53.5501 72.3016 53.147L77.0355 52.1035C77.6572 51.9611 79.0416 50.4489 80.6145 47.4222L88.6778 31.9781C90.3937 28.6965 92.0405 26.7941 92.8863 27.1306C93.4368 27.3469 93.4626 28.3595 92.9717 30.1285L89.3211 43.3486C88.8697 44.9821 88.9668 45.7318 89.1664 45.8836C89.2702 45.9556 89.4853 45.8842 89.7481 45.7014L95.8709 41.272C96.3326 40.938 96.6913 40.8829 96.9389 41.1146C96.9469 41.1226 96.9469 41.1226 96.9549 41.1306C97.7856 41.9613 96.4067 46.4075 94.102 50.3418L85.7096 64.6133C84.2632 67.0662 83.0728 69.982 82.7415 71.8789L80.801 82.8937C80.162 86.5201 76.5156 93.4576 74.6746 93.8607L69.9407 94.9042C69.3191 95.0465 67.9347 96.5588 66.3617 99.5855L58.2984 115.03C56.5825 118.311 54.9357 120.214 54.09 119.877C54.0261 119.829 53.9622 119.797 53.9143 119.749ZM58.0963 100.869C58.5596 101.333 58.307 102.672 58.0141 103.747L54.3635 116.968C53.73 119.247 54.177 119.503 54.2248 119.519C54.6557 119.695 56.152 118.326 57.9712 114.846L66.0345 99.4015C67.4724 96.6376 68.9836 94.727 69.8682 94.5293L74.6021 93.4858C76.0207 93.1696 79.7638 86.7426 80.45 82.8133L82.3905 71.7985C82.7298 69.8777 83.944 66.9061 85.4063 64.4213L93.7987 50.1499C96.2068 46.0643 97.2753 41.9444 96.7242 41.3932L96.7162 41.3852C96.5724 41.2574 96.246 41.4721 96.1026 41.5675L89.9799 45.9968C89.5659 46.299 89.2311 46.3621 88.9756 46.1862C88.4328 45.8025 88.6772 44.3758 88.9861 43.2523L92.6366 30.0322C93.2701 27.7532 92.8232 27.4972 92.7753 27.4812C92.3444 27.305 90.8481 28.6735 89.0289 32.1542L80.9656 47.5983C79.5278 50.3621 78.0165 52.2728 77.1319 52.4704L72.398 53.5139C70.9794 53.8301 67.2364 60.2572 66.5501 64.1865L64.6096 75.2013C64.2704 77.1221 63.0561 80.0936 61.5938 82.5784L53.2014 96.8499C50.7854 100.959 49.7169 105.079 50.2839 105.615C50.4277 105.742 50.7542 105.528 50.8975 105.432L57.0203 101.003C57.4343 100.701 57.769 100.638 58.0245 100.814C58.0484 100.837 58.0724 100.845 58.0963 100.869Z" fill="url(#paint20_linear_2_4394)"/>
<path d="M52.9742 120.098C52.5748 119.699 52.5888 118.662 53.0482 117.069L56.8496 103.522C57.3248 101.833 57.2196 101.027 56.9721 100.827C56.8204 100.708 56.5416 100.827 56.3425 100.946L49.8601 104.904C49.2548 105.27 48.9118 105.149 48.736 104.958C47.8253 104.031 49.2678 99.4575 51.7161 95.5554L60.5553 81.4602C62.0735 79.0313 63.3277 76.0997 63.6748 74.139L65.6784 62.7257C66.333 58.9717 70.1788 52.0586 72.1477 51.847L77.1776 51.3064C77.8551 51.2359 79.367 49.6601 80.9482 46.7849L89.4262 31.4054C91.1981 28.1957 92.9247 26.3732 93.8343 26.7416C94.4328 26.9899 94.4747 28.0823 93.9599 29.9071L90.1585 43.4537C89.6833 45.1431 89.7884 45.9485 90.036 46.1483C90.1877 46.2682 90.4665 46.1491 90.6656 46.0299L97.148 42.0716C97.7533 41.706 98.0884 41.8342 98.2641 42.01C99.1748 42.9365 97.7323 47.5102 95.2841 51.4123L86.4448 65.5075C84.9266 67.9364 83.6724 70.868 83.3253 72.8287L81.3217 84.242C80.6671 87.9959 76.8213 94.9091 74.8524 95.1207L69.8225 95.6613C69.145 95.7318 67.6331 97.3076 66.0519 100.183L57.5739 115.562C55.802 118.772 54.0754 120.595 53.1658 120.226C53.094 120.202 53.0301 120.154 52.9742 120.098ZM57.2587 100.605C57.7699 101.116 57.5175 102.519 57.2006 103.634L53.3992 117.181C52.8844 119.006 53.0294 119.787 53.3167 119.899C53.8114 120.108 55.3637 118.843 57.2547 115.402L65.7327 100.023C67.2583 97.267 68.8494 95.4203 69.782 95.3184L74.8119 94.7778C76.3184 94.6132 80.245 88.2583 80.9549 84.1934L82.9585 72.7801C83.3055 70.7876 84.5835 67.7842 86.1256 65.3315L94.9648 51.2363C97.5959 47.0396 98.6166 42.9195 98.0015 42.2885C97.8498 42.1367 97.555 42.2717 97.332 42.3989L90.8496 46.3571C90.316 46.683 89.989 46.5947 89.8054 46.4588C89.2065 46.0032 89.4748 44.5367 89.7916 43.3733L93.593 29.8267C94.1078 28.0018 93.9628 27.2202 93.6756 27.1081C93.1808 26.8998 91.6285 28.1646 89.7375 31.6053L81.2595 46.9848C79.7339 49.7406 78.1428 51.5873 77.2102 51.6891L72.1803 52.2298C70.6738 52.3944 66.7472 58.7493 66.0373 62.8141L64.0417 74.2194C63.6867 76.22 62.4167 79.2153 60.8746 81.6681L52.0354 95.7793C49.4043 99.976 48.3836 104.096 48.9987 104.727C49.1504 104.879 49.4452 104.744 49.6682 104.617L56.1506 100.658C56.6842 100.333 57.0112 100.421 57.1948 100.557C57.2188 100.565 57.2347 100.581 57.2587 100.605Z" fill="url(#paint21_linear_2_4394)"/>
<path d="M51.9701 120.368C51.5308 119.928 51.5447 118.828 52.0199 117.171L55.9881 103.297C56.4871 101.552 56.3579 100.675 56.0864 100.435C55.9347 100.315 55.7115 100.331 55.4088 100.49L48.5267 103.921C47.8895 104.239 47.5224 104.063 47.3466 103.855C46.4038 102.785 47.9576 98.052 50.4779 94.3016L59.7959 80.4464C61.394 78.0655 62.7119 75.1021 63.0589 73.0777L65.1095 61.2499C65.7798 57.3524 69.841 50.4955 71.9299 50.4994L77.2797 50.5175C77.9813 50.5188 79.5096 49.1663 81.258 46.1878L90.1827 30.9366C91.9788 27.8625 93.8331 26.0721 94.7906 26.4885C95.4529 26.7688 95.5188 27.933 94.9723 29.8374L91.0041 43.7106C90.5051 45.4558 90.6263 46.341 90.9058 46.5727C91.0575 46.6926 91.2807 46.6771 91.5834 46.5182L98.4575 43.0948C99.0947 42.7771 99.4459 42.9532 99.6376 43.1609C100.58 44.231 99.0267 48.9639 96.5063 52.7144L87.1883 66.5695C85.5903 68.9504 84.2724 71.9138 83.9254 73.9382L81.8747 85.766C81.2044 89.6635 77.1432 96.5205 75.0543 96.5165L69.7045 96.4985C68.987 96.4971 67.3872 97.985 65.7263 100.828L56.8016 116.079C55.0055 119.153 53.1592 120.936 52.1937 120.527C52.1059 120.487 52.034 120.431 51.9701 120.368ZM56.357 100.213C56.8044 100.66 56.7906 101.792 56.3312 103.418L52.363 117.291C51.8165 119.211 51.9855 120.049 52.3365 120.193C52.9749 120.465 54.6306 119.049 56.4823 115.903L65.407 100.652C67.0124 97.9125 68.6993 96.1458 69.7039 96.1477L75.0537 96.1657C76.6482 96.1687 80.7823 89.9258 81.5159 85.7096L83.5665 73.8818C83.9293 71.8095 85.2551 68.7903 86.8929 66.3697L96.211 52.5145C98.7711 48.7083 100.118 44.2461 99.375 43.4075C99.2391 43.2558 98.984 43.2553 98.6415 43.4221L91.7674 46.8454C91.2019 47.1234 90.8747 47.0032 90.6911 46.8514C90.204 46.4438 90.1938 45.2877 90.669 43.6143L94.6373 29.7411C95.1838 27.8207 95.0068 26.9753 94.6716 26.8311C94.0333 26.5588 92.3776 27.9749 90.5259 31.1206L81.6011 46.3718C79.9958 49.1114 78.3089 50.8782 77.3043 50.8763L71.9545 50.8582C70.3599 50.8552 66.2258 57.0981 65.4923 61.3144L63.4417 73.1422C63.0788 75.2145 61.7531 78.2337 60.1152 80.6543L50.7972 94.5095C48.2371 98.3156 46.8902 102.778 47.6332 103.616C47.769 103.768 48.0242 103.769 48.3667 103.602L55.2408 100.179C55.8063 99.9006 56.1334 100.021 56.3171 100.173C56.3251 100.181 56.3411 100.197 56.357 100.213Z" fill="url(#paint22_linear_2_4394)"/>
<path d="M50.918 120.541C50.4307 120.054 50.4285 118.874 50.9276 117.16L55.0626 102.961C55.5062 101.431 55.5359 100.283 55.1286 99.9231C54.9609 99.7713 54.7138 99.7628 54.3871 99.8818L47.0973 102.698C46.4121 102.968 46.0449 102.728 45.8531 102.489C44.878 101.227 46.5194 96.4227 49.1515 92.7841L58.9804 79.2488C60.6663 76.9239 62.0479 73.9447 62.4027 71.8485L64.5163 59.5903C65.2735 55.2066 69.6544 48.7808 71.7198 49.0159L77.4056 49.6565C78.3068 49.7619 80.0337 48.0669 81.5996 45.5584L91.003 30.4836C92.8869 27.4654 94.7733 25.8186 95.8187 26.291C96.5448 26.6192 96.6269 27.8791 96.0566 29.8393L91.9215 44.0391C91.4779 45.5691 91.4402 46.7091 91.8555 47.0766C92.0232 47.2284 92.2704 47.2369 92.5971 47.1179L99.8869 44.3013C100.572 44.0315 100.939 44.2714 101.131 44.5109C102.106 45.7725 100.465 50.577 97.8326 54.2156L88.0038 67.7668C86.3179 70.0917 84.9363 73.071 84.5814 75.1671L82.4678 87.4254C81.7107 91.809 77.3298 98.2348 75.2644 97.9997L69.5786 97.3591C68.6774 97.2538 66.9505 98.9487 65.3846 101.457L55.9812 116.532C54.0973 119.55 52.2108 121.197 51.1655 120.725C51.0697 120.677 50.9899 120.613 50.918 120.541ZM55.4073 99.6924C55.9025 100.188 55.9048 101.384 55.4136 103.073L51.2786 117.273C50.7795 118.986 50.7977 120.15 51.3163 120.382C52.0265 120.694 53.7542 119.414 55.6778 116.324L65.0812 101.249C66.7743 98.5338 68.5571 96.8629 69.6337 96.9845L75.3195 97.6251C77.0181 97.8117 81.3677 91.7047 82.1249 87.353L84.2305 75.0868C84.6012 72.9428 85.9986 69.8998 87.7243 67.5351L97.5532 53.9839C100.281 50.2179 101.652 45.7477 100.86 44.7177C100.796 44.6379 100.613 44.4063 100.039 44.6285L92.7492 47.4451C92.1676 47.6752 91.8165 47.5151 91.6248 47.3393C91.0897 46.852 91.0954 45.6481 91.5865 43.9269L95.7135 29.735C96.2126 28.0218 96.1945 26.8577 95.6758 26.6256C94.9656 26.3133 93.2379 27.5936 91.3143 30.6835L81.9109 45.7583C80.2178 48.4739 78.435 50.1448 77.3585 50.0232L71.6806 49.3746C69.982 49.1881 65.6324 55.295 64.8752 59.6468L62.7616 71.905C62.3909 74.049 60.9935 77.092 59.2678 79.4566L49.4389 93.0079C46.7114 96.7739 45.3405 101.244 46.1318 102.274C46.1877 102.346 46.3795 102.585 46.9531 102.363L54.243 99.5467C54.8245 99.3166 55.1756 99.4767 55.3673 99.6524C55.3833 99.6684 55.3993 99.6844 55.4073 99.6924Z" fill="url(#paint23_linear_2_4394)"/>
<path d="M49.794 120.61C49.2429 120.059 49.2325 118.807 49.7633 117.031L54.0732 102.512C54.5406 100.942 54.5623 99.7385 54.115 99.2912C54.115 99.2912 54.115 99.2912 54.107 99.2832C53.9232 99.0995 53.6521 99.0512 53.3014 99.1462L45.5559 101.268C44.8148 101.466 44.4235 101.17 44.2316 100.883C43.2322 99.3743 44.9294 94.6098 47.7132 91.0592L58.1009 77.8917C59.8825 75.6308 61.328 72.6517 61.6986 70.4758L63.8671 57.7632C64.4901 54.1048 67.6384 49.3749 69.8362 47.9121C70.4732 47.4827 71.023 47.3163 71.4776 47.4208L77.5315 48.7637C78.4967 48.9808 80.3115 47.4056 81.9652 44.9372L91.8793 30.1025C93.8192 27.204 95.7936 25.661 96.9188 26.1973C97.7327 26.5815 97.8469 27.9212 97.2289 29.977L92.919 44.4954C92.4516 46.0651 92.4299 47.269 92.8773 47.7163C92.8773 47.7163 92.8773 47.7163 92.8853 47.7243C93.069 47.908 93.3401 47.9564 93.6908 47.8614L101.436 45.7393C102.177 45.5413 102.553 45.837 102.761 46.1245C103.76 47.6332 102.063 52.3978 99.279 55.9484L88.9073 69.1159C87.1256 71.3768 85.6802 74.3559 85.3096 76.5318L83.141 89.2444C82.5181 92.9027 79.3697 97.6327 77.172 99.0955C76.535 99.5248 75.9852 99.6912 75.5305 99.5867L69.4527 98.2358C68.4876 98.0188 66.6727 99.594 65.019 102.062L55.1049 116.897C53.165 119.796 51.1906 121.339 50.0655 120.802C49.9697 120.754 49.8739 120.69 49.794 120.61ZM54.3696 99.0206C54.3776 99.0286 54.3776 99.0286 54.3696 99.0206C54.9208 99.5877 54.9391 100.863 54.4242 102.609L50.1143 117.127C49.5756 118.928 49.6258 120.188 50.2323 120.476C51.0063 120.836 52.8219 119.659 54.8095 116.697L64.7237 101.863C66.5045 99.187 68.3991 97.6279 69.5397 97.8772L75.5936 99.2201C75.9366 99.2925 76.4067 99.1419 76.9482 98.7762C79.0822 97.3451 82.151 92.7426 82.7582 89.1639L84.9267 76.4514C85.3052 74.2197 86.7824 71.1768 88.5959 68.8681L98.9756 55.7086C101.807 52.1102 103.25 47.5366 102.442 46.3152C102.258 46.0358 101.963 45.9635 101.525 46.0823L93.7791 48.2044C93.1655 48.3706 92.8063 48.1547 92.6067 47.9709C92.0635 47.4118 92.0451 46.1361 92.5601 44.3911L96.8858 29.8727C97.4246 28.0719 97.3824 26.8201 96.7679 26.5239C95.9939 26.1637 94.1783 27.3402 92.1907 30.3024L82.2765 45.1371C80.4956 47.8126 78.601 49.3717 77.4605 49.1224L71.4066 47.7795C71.0636 47.7071 70.5935 47.8577 70.052 48.2234C67.918 49.6545 64.8492 54.257 64.242 57.8357L62.0734 70.5482C61.695 72.7799 60.2177 75.8227 58.4043 78.1314L48.0246 91.291C45.193 94.8893 43.7506 99.463 44.5582 100.684C44.7421 100.964 45.0372 101.036 45.4755 100.917L53.2211 98.7952C53.8187 98.6289 54.1779 98.8289 54.3696 99.0206Z" fill="url(#paint24_linear_2_4394)"/>
<path d="M48.6219 120.552C48.0068 119.937 47.9723 118.582 48.527 116.733L53.0275 101.896C53.5109 100.295 53.5244 99.0192 53.053 98.4841C52.8453 98.2445 52.5421 98.1642 52.1596 98.2273L43.9421 99.5592C43.1291 99.6852 42.7297 99.3018 42.5298 98.9586C41.5458 97.2107 43.3386 92.3985 46.2185 89.0553L57.1651 76.3513C59.0426 74.1703 60.5598 71.1993 60.9462 68.9437L63.1777 55.7688C63.8085 52.0387 67.005 47.5162 69.3384 46.1253C70.0711 45.6803 70.7007 45.5459 71.2113 45.7223L77.6574 47.8552C78.6785 48.192 80.6052 46.7446 82.3467 44.3321L92.8036 29.8173C94.7996 27.0386 96.8698 25.6393 98.0669 26.2315C98.9607 26.6797 99.107 28.1469 98.4652 30.2745L93.9646 45.1114C93.4813 46.713 93.4677 47.9886 93.9391 48.5237C94.1469 48.7633 94.45 48.8436 94.8326 48.7805L103.05 47.4486C103.863 47.3226 104.262 47.706 104.462 48.0492C105.446 49.7971 103.654 54.6094 100.774 57.9525L89.827 70.6565C87.9495 72.8375 86.4323 75.8085 86.0459 78.0641L83.8145 91.239C83.1837 94.9691 79.9871 99.4916 77.6537 100.882C76.921 101.328 76.2914 101.462 75.7808 101.286L69.3348 99.1526C68.3136 98.8158 66.3869 100.263 64.6454 102.676L54.1965 117.198C52.2006 119.977 50.1303 121.377 48.9332 120.784C48.8055 120.72 48.7097 120.64 48.6219 120.552ZM53.2677 98.1895C53.2837 98.2055 53.3076 98.2294 53.3236 98.2454C53.8989 98.9003 53.9094 100.232 53.3786 102.009L48.878 116.846C48.2995 118.75 48.3738 120.098 49.0921 120.45C49.914 120.858 51.77 119.945 53.9011 116.983L64.358 102.468C66.2188 99.8882 68.265 98.4171 69.4617 98.818L75.9078 100.951C76.3067 101.079 76.8486 100.953 77.4777 100.579C79.7474 99.2201 82.8485 94.8249 83.4636 91.1905L85.695 78.0156C86.0893 75.7042 87.6383 72.6536 89.5555 70.4328L100.502 57.7288C103.517 54.2344 104.96 49.6926 104.152 48.248C103.952 47.8888 103.609 47.7526 103.123 47.8235L94.905 49.1554C94.387 49.2421 93.9642 49.1058 93.6765 48.7704C93.1012 48.1155 93.0907 46.784 93.6216 45.0071L98.1221 30.1542C98.7006 28.2498 98.6263 26.9023 97.908 26.5501C97.0861 26.142 95.2301 27.0553 93.099 30.0172L82.6421 44.5319C80.7813 47.1116 78.7351 48.5828 77.5384 48.1819L71.0923 46.0489C70.6934 45.9206 70.1515 46.0472 69.5224 46.4207C67.2527 47.7798 64.1516 52.1749 63.5365 55.8094L61.3051 68.9842C60.9108 71.2956 59.3618 74.3463 57.4446 76.5671L46.4979 89.2711C43.4828 92.7655 42.0403 97.3073 42.8483 98.7519C43.0483 99.111 43.3914 99.2472 43.8776 99.1764L52.0951 97.8445C52.5733 97.7816 52.9801 97.9019 53.2677 98.1895Z" fill="url(#paint25_linear_2_4394)"/>
<path d="M47.3618 120.359C46.6748 119.672 46.6083 118.221 47.2106 116.292L51.9019 101.137C52.4091 99.4954 52.4146 98.1799 51.9111 97.5331C51.6793 97.2377 51.3442 97.0936 50.9217 97.1167L42.1843 97.5626C41.4748 97.6012 40.94 97.2892 40.6598 96.6748C39.8033 94.8314 41.3093 90.1941 44.5877 86.756L56.1573 74.6113C58.1386 72.5341 59.7355 69.5633 60.1218 67.228L62.4161 53.5589C63.0468 49.7969 66.2757 45.4977 68.7368 44.1708C69.597 43.71 70.3223 43.6078 70.8969 43.864L77.7751 46.8747C78.8763 47.3552 80.9149 46.0515 82.7442 43.7109L93.7759 29.6118C95.8359 26.9767 97.9942 25.7131 99.2791 26.3932C100.285 26.9213 100.463 28.5003 99.7815 30.7154L95.0902 45.8709C94.583 47.5123 94.5775 48.8278 95.0811 49.4746C95.3128 49.77 95.648 49.9142 96.0705 49.891L104.808 49.4451C105.517 49.4066 106.044 49.7105 106.332 50.333C107.189 52.1763 105.683 56.8136 102.404 60.2517L90.8349 72.3964C88.8536 74.4736 87.2566 77.4445 86.8704 79.7798L84.576 93.4329C83.9453 97.1949 80.7164 101.494 78.2553 102.821C77.3951 103.282 76.6698 103.384 76.0953 103.128L69.217 100.117C68.1159 99.6366 66.0773 100.94 64.2479 103.281L53.2162 117.396C51.1562 120.031 48.998 121.295 47.7051 120.622C47.5854 120.551 47.4656 120.463 47.3618 120.359ZM52.0858 97.1667C52.1257 97.2067 52.1737 97.2546 52.2057 97.3025C52.7891 98.061 52.8157 99.4563 52.2609 101.241L47.5696 116.397C46.9515 118.405 47.0658 119.856 47.8878 120.28C48.8056 120.768 50.7256 119.982 52.9288 117.156L63.9605 103.041C65.925 100.533 68.0911 99.214 69.3678 99.7745L76.2461 102.785C76.7169 102.985 77.3545 102.891 78.0873 102.494C80.4767 101.207 83.6021 97.0268 84.2171 93.3605L86.5114 79.6914C86.9135 77.2923 88.5502 74.2498 90.5713 72.1169L102.141 59.9722C105.268 56.6853 106.79 52.1596 105.998 50.4599C105.782 49.9891 105.382 49.7651 104.832 49.788L96.095 50.2339C95.545 50.2568 95.0981 50.0646 94.7864 49.6734C94.203 48.9148 94.1764 47.5195 94.7312 45.7347L99.4305 30.6031C100.049 28.5952 99.9343 27.1439 99.1123 26.7198C98.1945 26.2317 96.2745 27.0174 94.0714 29.8436L83.0397 43.9586C81.0751 46.4664 78.909 47.7858 77.6323 47.2253L70.754 44.2145C70.2832 44.0143 69.6456 44.1088 68.9128 44.506C66.5234 45.7931 63.398 49.973 62.783 53.6393L60.4887 67.3084C60.0866 69.7074 58.4499 72.75 56.4289 74.8829L44.8593 87.0276C41.7321 90.3145 40.2099 94.8402 41.0024 96.5399C41.2185 97.0107 41.6176 97.2347 42.1677 97.2118L50.9051 96.7659C51.3754 96.7269 51.7903 96.8712 52.0858 97.1667Z" fill="url(#paint26_linear_2_4394)"/>
<path d="M46.0377 120.022C45.2549 119.239 45.1722 117.692 45.8062 115.668L50.7123 100.202C51.2353 98.5445 51.2407 97.1653 50.721 96.4069C50.4652 96.0396 50.0901 95.8236 49.6117 95.8068L40.3223 95.2551C39.517 95.2137 38.9341 94.7741 38.6616 94.0082C37.74 91.4791 40.1069 86.7158 42.8527 84.1458L55.0852 72.664C57.1784 70.6987 58.8551 67.7599 59.2572 65.3449L61.6143 51.1656C62.2529 47.3479 65.5222 43.3118 68.0472 42.0808C69.0429 41.5963 69.9118 41.5421 70.5743 41.9022L77.9088 45.8944C79.082 46.5265 81.2485 45.3984 83.1817 43.1458L94.8202 29.5103C96.9363 27.0267 99.1985 25.9307 100.571 26.6987C101.697 27.3307 101.923 29.0214 101.194 31.3481L96.2879 46.8141C95.7648 48.4714 95.7595 49.8507 96.2791 50.6091C96.535 50.9764 96.9101 51.1923 97.3885 51.2092L106.678 51.7609C107.483 51.8023 108.058 52.2339 108.339 53.0078C109.26 55.5369 106.893 60.3002 104.148 62.8702L91.9149 74.3519C89.8218 76.3173 88.145 79.2561 87.743 81.6711L85.3858 95.8503C84.7472 99.6681 81.478 103.704 78.953 104.935C77.9573 105.42 77.0883 105.474 76.4259 105.114L69.0914 101.122C67.9182 100.489 65.7517 101.618 63.8185 103.87L52.172 117.498C50.0559 119.981 47.7937 121.077 46.4209 120.309C46.2852 120.237 46.1495 120.133 46.0377 120.022ZM50.7999 95.9446C50.8798 96.0245 50.9437 96.1043 51.0077 96.2001C51.5913 97.0543 51.6101 98.5532 51.0473 100.314L46.1413 115.78C45.4676 117.892 45.646 119.471 46.5878 119.999C47.5854 120.551 49.6013 119.925 51.8845 117.258L63.547 103.631C65.6233 101.203 67.9253 100.067 69.2741 100.795L76.6087 104.787C77.311 105.171 78.1875 104.886 78.8008 104.592C81.2542 103.401 84.42 99.4841 85.0349 95.7699L87.392 81.5907C87.8099 79.096 89.5263 76.0696 91.6672 74.0565L103.9 62.5748C107.115 59.5511 108.717 55.0894 107.996 53.1108C107.764 52.4805 107.316 52.1448 106.655 52.1037L97.3652 51.552C96.7752 51.519 96.2883 51.2549 95.9685 50.7919C95.3849 49.9377 95.3661 48.4388 95.9289 46.6779L100.835 31.2118C101.509 29.1003 101.338 27.5293 100.388 26.9934C99.3908 26.4414 97.3749 27.0674 95.0917 29.734L83.4452 43.3615C81.3688 45.7893 79.0668 46.9251 77.718 46.197L70.3835 42.2048C69.6812 41.8208 68.8047 42.1061 68.1913 42.4C65.7379 43.5913 62.5721 47.5079 61.9573 51.2221L59.6001 65.4013C59.1823 67.896 57.4658 70.9225 55.3249 72.9356L43.0924 84.4173C39.877 87.4409 38.2749 91.9027 38.9962 93.8813C39.2286 94.5116 39.6757 94.8473 40.3376 94.8884L49.6269 95.4401C50.0974 95.4649 50.4964 95.641 50.7999 95.9446Z" fill="url(#paint27_linear_2_4394)"/>
<path d="M44.6575 119.532C43.7708 118.646 43.6321 116.947 44.3138 114.844L49.4345 99.0672C49.9655 97.4178 49.9787 95.9667 49.4429 95.0967C49.163 94.6258 48.7399 94.3459 48.1976 94.2492L38.3081 92.5722C37.3829 92.411 36.7519 91.8119 36.487 90.8467C35.8527 88.4775 37.4947 84.0238 40.9574 81.1522L53.9011 70.4611C56.1141 68.6315 57.8706 65.7247 58.2884 63.2141L60.7084 48.5088C61.3311 44.7229 64.5768 40.9339 67.2136 39.7669C68.3847 39.2509 69.4211 39.2369 70.1954 39.7406L78.0264 44.8181C79.2876 45.6337 81.582 44.6973 83.627 42.5405L95.9284 29.5201C98.1086 27.2121 100.467 26.2758 101.935 27.1556C103.189 27.8994 103.463 29.7656 102.686 32.1719L97.5737 47.9405C97.0426 49.5899 97.0294 51.0409 97.5652 51.9109C97.8451 52.3819 98.2682 52.6617 98.8106 52.7584L108.7 54.4354C109.625 54.5966 110.256 55.1958 110.521 56.161C111.155 58.5301 109.513 62.9838 106.051 65.8555L93.107 76.5465C90.894 78.3761 89.1375 81.2829 88.7197 83.7935L86.2997 98.4989C85.677 102.285 82.4313 106.074 79.7945 107.241C78.6234 107.757 77.587 107.771 76.8127 107.267L68.9817 102.19C67.7205 101.374 65.4261 102.31 63.3811 104.467L51.0717 117.495C48.8915 119.803 46.5334 120.74 45.0647 119.86C44.913 119.756 44.7773 119.652 44.6575 119.532ZM49.4258 94.4907C49.5456 94.6106 49.6575 94.7543 49.7535 94.9139C50.3533 95.8957 50.3562 97.4105 49.7775 99.1874L44.6648 114.956C43.9434 117.179 44.1699 118.886 45.2554 119.541C46.5645 120.325 48.7473 119.42 50.8081 117.232L63.1096 104.196C65.3057 101.872 67.7436 100.935 69.1805 101.863L77.0114 106.941C77.8416 107.484 78.9014 107.207 79.6343 106.89C82.1835 105.762 85.3179 102.101 85.9249 98.4264L88.3448 83.7211C88.7705 81.1387 90.5826 78.1284 92.8593 76.2511L105.803 65.56C109.114 62.8236 110.757 58.4496 110.162 56.248C109.938 55.4184 109.426 54.9231 108.637 54.7861L98.7474 53.1091C98.1014 53.0042 97.5905 52.6525 97.2546 52.0937C96.6548 51.1119 96.6519 49.5971 97.2306 47.8202L102.335 32.0437C103.057 29.8206 102.838 28.106 101.745 27.4582C100.436 26.6744 98.2528 27.5792 96.192 29.7678L83.8826 42.7961C81.6865 45.12 79.2485 46.0562 77.8117 45.1287L69.9808 40.0512C69.1506 39.5074 68.0907 39.7845 67.3578 40.102C64.8086 41.2294 61.6742 44.8909 61.0672 48.5653L58.6473 63.2706C58.2217 65.853 56.4095 68.8633 54.1328 70.7406L41.2052 81.4476C37.8936 84.184 36.2515 88.558 36.8456 90.7596C37.0704 91.5892 37.5816 92.0845 38.3712 92.2216L48.2607 93.8986C48.7153 93.9712 49.1143 94.1792 49.4258 94.4907Z" fill="url(#paint28_linear_2_4394)"/>
<path d="M43.1812 118.852C42.1667 117.837 41.9879 116.003 42.7252 113.796L48.0766 97.7252C48.6236 96.0918 48.6287 94.5849 48.1007 93.5953C47.7886 93.0127 47.3175 92.6371 46.7033 92.4685L36.1816 89.5386C35.0967 89.2336 34.4095 88.419 34.1919 87.1828C33.7327 84.6386 35.4387 80.3285 38.9739 77.7999L52.6767 68.0111C55.0175 66.3413 56.8618 63.4745 57.2874 60.8762L59.7701 45.6129C60.3927 41.7632 63.5674 38.3488 66.2761 37.2696C67.6783 36.7142 68.8903 36.7803 69.7925 37.4437L78.1439 43.7261C79.4932 44.7412 81.9475 44.0283 84.0963 41.9913L97.1087 29.6659C99.353 27.5334 101.823 26.8046 103.388 27.7961C104.785 28.6838 105.123 30.7095 104.291 33.2194L98.9396 49.2905C98.3925 50.9239 98.3874 52.4307 98.9155 53.4204C99.2275 54.003 99.6986 54.3786 100.321 54.5551L110.843 57.4851C111.927 57.7901 112.615 58.6046 112.832 59.8408C113.291 62.385 111.585 66.6951 108.05 69.2238L94.3475 79.0125C92.0066 80.6824 90.1623 83.5491 89.7367 86.1475L87.254 101.411C86.6314 105.26 83.4567 108.675 80.748 109.754C79.3458 110.309 78.1258 110.251 77.2316 109.58L68.8802 103.298C67.5069 102.258 65.1084 102.964 62.9278 105.032L49.9154 117.358C47.6711 119.49 45.2009 120.219 43.6364 119.227C43.4528 119.108 43.309 118.98 43.1812 118.852ZM47.9396 92.7658C48.1234 92.9495 48.2832 93.1731 48.4192 93.4205C49.0033 94.5139 49.0063 96.0925 48.4196 97.8454L43.0683 113.917C42.2913 116.243 42.5818 118.109 43.8191 118.901C45.232 119.805 47.5189 119.083 49.6438 117.07L62.6561 104.745C64.9801 102.549 67.5619 101.836 69.0869 102.979L77.4383 109.261C78.4443 110.013 79.7035 109.744 80.5958 109.395C83.1532 108.371 86.2721 104.997 86.8791 101.322L89.3618 86.059C89.7952 83.373 91.7111 80.4028 94.1316 78.6852L107.826 68.9044C111.25 66.4553 112.901 62.3125 112.466 59.8879C112.329 59.1303 111.92 58.1488 110.74 57.8277L100.218 54.8978C99.5079 54.6971 98.9489 54.2496 98.5968 53.5792C98.0128 52.4858 98.0098 50.9072 98.5965 49.1543L103.932 33.0991C104.709 30.7725 104.426 28.8984 103.181 28.1147C101.768 27.2111 99.4813 27.9323 97.3564 29.9454L84.344 42.2708C82.0201 44.4669 79.4383 45.1796 77.9133 44.0366L69.5619 37.7542C68.5559 37.0029 67.2967 37.2716 66.4044 37.6207C63.847 38.6444 60.728 42.019 60.1211 45.6933L57.6384 60.9566C57.205 63.6426 55.2891 66.6129 52.8686 68.3304L39.1658 78.1191C35.7421 80.5683 34.0916 84.7111 34.5267 87.1356C34.6637 87.8933 35.0801 88.8668 36.2527 89.1959L46.7744 92.1258C47.229 92.2303 47.6201 92.4463 47.9396 92.7658Z" fill="url(#paint29_linear_2_4394)"/>
<path d="M41.6248 117.98C40.4586 116.814 40.2316 114.82 41.0245 112.494L46.6145 96.1359C47.5501 93.395 46.9398 91.0817 45.0888 90.3766L33.8708 86.0501C32.6102 85.5694 31.8347 84.4438 31.7043 82.8968C31.3948 79.436 34.0585 75.6539 36.806 73.9928L51.324 65.258C53.8008 63.7718 55.7488 60.961 56.1823 58.275L58.7276 42.4378C59.3502 38.5881 62.5096 35.4767 65.1707 34.509C66.8119 33.9062 68.2952 34.0684 69.3333 34.9633L78.2613 42.5862C79.7387 43.8408 82.2812 43.3911 84.5976 41.4581L98.3609 29.9473C100.717 27.9745 103.236 27.469 104.92 28.6282C106.485 29.6996 106.88 31.8928 105.984 34.4983L100.394 50.8559C99.4579 53.5968 100.068 55.9101 101.919 56.6152L113.137 60.9417C114.398 61.4224 115.173 62.5481 115.304 64.095C115.613 67.5558 112.95 71.3379 110.202 72.999L95.684 81.7338C93.2073 83.22 91.2592 86.0308 90.8258 88.7168L88.2804 104.554C87.6578 108.404 84.4985 111.515 81.8374 112.483C80.1961 113.086 78.7129 112.923 77.6747 112.028L68.7467 104.406C67.2694 103.151 64.7269 103.601 62.4105 105.534L48.6392 117.052C46.2829 119.025 43.7645 119.531 42.08 118.372C41.9124 118.252 41.7606 118.116 41.6248 117.98ZM46.3253 90.7537C47.4756 91.9039 47.7345 93.9455 46.9496 96.2641L41.3596 112.622C40.527 115.052 40.8657 117.094 42.2868 118.069C43.8275 119.132 46.1786 118.634 48.4074 116.773L62.1708 105.262C64.6225 103.21 67.3643 102.753 68.9775 104.143L77.9054 111.766C78.8477 112.565 80.1874 112.695 81.6933 112.148C84.2587 111.212 87.2987 108.22 87.8977 104.505L90.459 88.6683C90.9081 85.8707 92.9357 82.9644 95.4841 81.4225L110.002 72.6877C113.379 70.653 115.165 66.7417 114.929 64.1342C114.848 63.1454 114.431 61.853 112.994 61.2922L101.776 56.9657C99.7339 56.1805 99.0355 53.6837 100.043 50.7437L105.633 34.386C106.465 31.9558 106.118 29.9062 104.705 28.9388C103.165 27.8755 100.814 28.3733 98.5847 30.2348L84.8294 41.7376C82.3776 43.7899 79.6358 44.2472 78.0227 42.8569L69.0947 35.234C68.1524 34.4349 66.8127 34.3048 65.3069 34.8521C62.7414 35.788 59.7014 38.7801 59.1025 42.4943L56.5571 58.3315C56.1079 61.1291 54.0803 64.0354 51.5319 65.5773L37.0139 74.3121C33.6373 76.3468 31.8508 80.2581 32.0869 82.8656C32.1685 83.8544 32.5855 85.1468 34.0217 85.7076L45.2396 90.0341C45.6466 90.2023 46.0218 90.4501 46.3253 90.7537Z" fill="url(#paint30_linear_2_4394)"/>
<path d="M40.0043 116.917C38.6623 115.575 38.3472 113.334 39.1957 110.919L45.0403 94.2912C46.0237 91.5026 45.3492 88.9659 43.3622 87.9975L31.4077 82.1069C29.9075 81.3706 29.0755 79.902 29.0719 77.9726C29.0666 75.1981 30.9253 71.4703 34.4858 69.7309L49.8752 62.2017C52.4958 60.923 54.5476 58.1842 54.9888 55.3946L57.6048 38.9595C58.1958 35.2373 61.2201 32.3728 63.9052 31.4769C65.8494 30.8268 67.5959 31.1092 68.826 32.2755L78.3706 41.3746C79.9601 42.8844 82.6705 42.7142 85.1148 40.9408L99.6852 30.3963C102.13 28.623 104.76 28.3569 106.556 29.6917C108.257 30.9626 108.74 33.4032 107.796 36.0564L101.952 52.6847C100.968 55.4733 101.651 58.002 103.63 58.9784L115.584 64.8689C117.085 65.6052 117.916 67.0738 117.92 69.0032C117.925 71.7778 116.067 75.5056 112.506 77.2449L97.1169 84.7742C94.4962 86.0528 92.4444 88.7916 92.0032 91.5813L89.3872 108.016C88.7962 111.739 85.772 114.603 83.0868 115.499C81.1427 116.149 79.3961 115.867 78.1661 114.7L68.6214 105.601C67.0319 104.091 64.3215 104.262 61.8772 106.035L47.3068 116.58C44.8625 118.353 42.2319 118.619 40.4355 117.284C40.2838 117.18 40.1401 117.052 40.0043 116.917ZM44.5668 88.4223C45.8928 89.7483 46.2319 91.9973 45.3754 94.4194L39.5308 111.048C38.6505 113.542 39.0774 115.831 40.6423 116.998C42.295 118.236 44.7661 117.97 47.075 116.3L61.6454 105.756C64.241 103.879 67.1428 103.709 68.8681 105.355L78.4127 114.454C79.531 115.524 81.1499 115.774 82.9506 115.172C85.5242 114.308 88.4371 111.554 89.0124 107.976L91.6284 91.5407C92.0933 88.6315 94.2247 85.7972 96.9488 84.4629L112.338 76.9337C115.755 75.2578 117.55 71.6894 117.545 69.0265C117.55 67.2485 116.79 65.8997 115.418 65.2274L103.463 59.3368C101.3 58.2724 100.562 55.5602 101.601 52.5883L107.453 35.9521C108.334 33.4582 107.915 31.1772 106.342 30.0023C104.689 28.7634 102.218 29.0298 99.9091 30.6997L85.3387 41.2442C82.743 43.1209 79.8333 43.2828 78.116 41.6452L68.5713 32.5461C67.4531 31.4757 65.8342 31.2255 64.0334 31.828C61.4599 32.6922 58.547 35.4453 57.9717 39.024L55.3557 55.459C54.8988 58.3603 52.7594 61.2026 50.0352 62.5369L34.6459 70.0661C31.2287 71.7419 29.4336 75.3104 29.4386 77.9733C29.434 79.7512 30.194 81.1001 31.5666 81.7724L43.529 87.6709C43.92 87.871 44.2713 88.1268 44.5668 88.4223Z" fill="url(#paint31_linear_2_4394)"/>
<path d="M38.2878 115.63C36.7302 114.072 36.3268 111.6 37.2389 109.058L43.3621 92.1673C44.3932 89.3309 43.6465 86.5629 41.5154 85.2912L28.7604 77.6611C26.9964 76.6133 26.0998 74.6822 26.3028 72.3864C26.5369 69.6761 28.3882 66.323 31.9894 64.9744L48.3221 58.8024C51.0946 57.7552 53.2583 55.1123 53.7073 52.219L56.3938 35.1542C56.9847 31.4161 59.8742 28.926 62.4877 28.1177C64.7507 27.4204 66.8564 27.9027 68.2784 29.3724L78.4879 40.1071C80.1895 41.9042 83.0839 42.0452 85.688 40.4476L101.122 31.0369C103.67 29.479 106.437 29.4763 108.329 31.0345C110.19 32.5608 110.737 35.2089 109.745 37.9417L103.622 54.8325C102.591 57.6689 103.338 60.4369 105.469 61.7086L118.232 69.3467C119.988 70.4024 120.892 72.3256 120.689 74.6214C120.455 77.3317 118.604 80.6848 115.003 82.0334L98.678 88.1815C95.9055 89.2287 93.7418 91.8716 93.2928 94.7649L90.6063 111.83C90.0154 115.568 87.1259 118.058 84.5124 118.866C82.2494 119.563 80.1437 119.097 78.7217 117.611L68.5122 106.877C68.4883 106.853 68.4563 106.821 68.4323 106.797C66.7149 105.079 63.8684 104.97 61.3121 106.536L45.8706 115.971C43.3222 117.529 40.5557 117.532 38.6632 115.973C38.5354 115.861 38.4076 115.75 38.2878 115.63ZM42.6643 85.7079C44.2059 87.2496 44.6332 89.7459 43.7131 92.2955L37.59 109.186C36.654 111.768 37.1531 114.256 38.8938 115.695C40.6666 117.149 43.2736 117.13 45.6866 115.66L61.1282 106.225C63.8756 104.548 66.9773 104.705 68.7828 106.638L78.9924 117.373C80.3105 118.755 82.2886 119.189 84.4001 118.531C86.9021 117.754 89.6802 115.376 90.2395 111.797L92.926 94.7323C93.4067 91.7115 95.6578 88.9492 98.5499 87.8624L114.875 81.7142C118.332 80.4132 120.104 77.2035 120.331 74.6127C120.518 72.4604 119.685 70.657 118.057 69.6812L105.302 62.0511C103.011 60.6834 102.216 57.7399 103.295 54.7283L109.402 37.8214C110.346 35.232 109.839 32.7515 108.106 31.3211C106.334 29.8667 103.727 29.8857 101.314 31.3562L85.872 40.7908C83.1246 42.4679 80.0387 42.2946 78.2173 40.3777L68.0078 29.643C66.6897 28.2612 64.7116 27.8269 62.6 28.4847C60.098 29.2613 57.32 31.6399 56.7607 35.2187L54.0741 52.2835C53.5935 55.3042 51.3424 58.0666 48.4503 59.1534L32.1256 65.3016C28.6678 66.6026 26.8959 69.8123 26.6696 72.403C26.4823 74.5553 27.3149 76.3588 28.9432 77.3345L41.7061 84.9726C42.0573 85.1806 42.3847 85.4284 42.6643 85.7079Z" fill="url(#paint32_linear_2_4394)"/>
<path d="M36.5069 114.104C34.6777 112.274 34.1623 109.531 35.1698 106.846L41.5715 89.7082C42.6504 86.8241 41.8394 83.8009 39.5482 82.194L25.9285 72.6328C23.8688 71.1938 22.9234 68.7364 23.3968 66.0903C23.949 62.966 26.2722 60.4191 29.3323 59.6117L46.6645 55.0281C49.5971 54.2523 51.8805 51.7132 52.3452 48.7083L55.0704 30.9978C55.5589 27.8734 57.8502 25.2945 60.8942 24.4233C63.4839 23.6867 66.0126 24.3691 67.6666 26.2618L78.5891 38.8077C80.4348 40.924 83.5132 41.4082 86.2772 40.0341L102.638 31.8689C105.314 30.5345 108.225 30.835 110.246 32.6646C112.266 34.4941 112.87 37.3575 111.83 40.154L105.429 57.2915C104.35 60.1757 105.161 63.1989 107.452 64.8057L121.072 74.3669C123.131 75.8059 124.069 78.2554 123.603 80.9094C123.051 84.0337 120.728 86.5807 117.668 87.3881L100.336 91.9717C97.403 92.7475 95.1196 95.2865 94.6549 98.2914L91.9058 116.01C91.4173 119.134 89.142 121.713 86.082 122.584C83.4923 123.321 80.9636 122.639 79.3096 120.746L68.3871 108.2C66.5494 106.092 63.463 105.6 60.699 106.974L44.3541 115.123C41.6778 116.457 38.7671 116.157 36.7386 114.335C36.6667 114.263 36.5868 114.183 36.5069 114.104ZM40.5695 82.5786C42.3667 84.3759 42.9141 87.1674 41.9146 89.8444L35.5128 106.982C34.5212 109.635 35.0924 112.355 36.9932 114.065C38.902 115.782 41.6611 116.059 44.1941 114.804L60.5549 106.638C63.4622 105.185 66.7401 105.725 68.6817 107.953L79.6042 120.499C81.1622 122.28 83.5473 122.93 85.9937 122.225C88.9101 121.386 91.098 118.926 91.5548 115.945L94.3039 98.227C94.7923 95.0866 97.1792 92.4282 100.255 91.6207L117.587 87.0372C120.504 86.2613 122.724 83.8338 123.252 80.845C123.694 78.3423 122.797 76.0285 120.865 74.6695L107.245 65.1083C104.81 63.4055 103.951 60.2068 105.093 57.1633L111.495 40.0258C112.487 37.3728 111.924 34.6609 110.015 32.9432C108.106 31.2254 105.347 30.9491 102.814 32.2041L86.4532 40.3693C83.5459 41.8228 80.268 41.2825 78.3264 39.0544L67.388 26.5085C65.8379 24.7196 63.4448 24.0773 60.9985 24.7822C58.082 25.6219 55.8941 28.0813 55.4373 31.0623L52.6882 48.7807C52.1998 51.9211 49.813 54.5795 46.737 55.387L29.4127 59.9785C26.4961 60.7544 24.2763 63.1819 23.7477 66.1707C23.306 68.6734 24.2033 70.9872 26.1353 72.3462L39.7549 81.9074C40.0503 82.1073 40.3218 82.331 40.5695 82.5786Z" fill="url(#paint33_linear_2_4394)"/>
<path d="M34.6539 112.346C32.5052 110.197 31.8456 107.103 32.9405 104.266L39.6448 86.9062C40.7714 83.9743 39.8802 80.6798 37.4368 78.698L22.8803 67.0063C20.5088 65.0963 19.5224 62.0887 20.2982 59.1561C21.074 56.2236 23.422 54.1152 26.4349 53.6585L44.8389 50.8469C47.9474 50.3744 50.3586 47.9632 50.8311 44.8546L53.6507 26.4427C54.1074 23.4458 56.2158 21.0978 59.1483 20.306C62.0809 19.5302 65.0885 20.5166 66.9985 22.8881L78.6981 37.4366C80.68 39.896 83.9745 40.7872 86.9063 39.6447L104.266 32.9403C107.103 31.8454 110.197 32.5051 112.346 34.6538C114.495 36.8025 115.155 39.8972 114.06 42.7335L107.355 60.0937C106.229 63.0255 107.112 66.312 109.563 68.3019L124.112 80.0015C126.483 81.9115 127.47 84.9191 126.694 87.8516C125.918 90.7842 123.57 92.8926 120.557 93.3493L102.153 96.1609C99.0448 96.6334 96.6336 99.0446 96.161 102.153L93.3495 120.557C92.8927 123.554 90.7843 125.902 87.8518 126.694C84.9193 127.47 81.9116 126.483 80.0017 124.112L68.302 109.563C66.3281 107.112 63.0257 106.213 60.0938 107.355L42.7337 114.059C39.8974 115.154 36.8107 114.503 34.6539 112.346ZM38.2745 78.9786C40.3833 81.0874 41.0749 84.23 39.9799 87.0503L33.2836 104.403C32.2363 107.095 32.8716 110.039 34.9166 112.083C36.9615 114.128 39.9126 114.756 42.5975 113.716L59.9576 107.012C63.0408 105.814 66.5028 106.761 68.5886 109.34L80.2883 123.889C82.1024 126.149 84.9664 127.087 87.7555 126.343C90.5445 125.599 92.5495 123.37 92.9826 120.509L95.7942 102.105C96.2983 98.8367 98.8289 96.3061 102.097 95.802L120.501 92.9904C123.354 92.5493 125.591 90.5524 126.335 87.7633C127.079 84.9742 126.141 82.1102 123.881 80.2961L109.333 68.5964C106.754 66.5106 105.814 63.0566 107.004 59.9654L113.717 42.5973C114.764 39.9045 114.128 36.9613 112.084 34.9164C110.039 32.8715 107.088 32.2441 104.403 33.2834L87.0425 39.9877C83.9672 41.1779 80.4893 40.2465 78.4115 37.6593L66.7198 23.1188C64.9058 20.859 62.0417 19.9208 59.2527 20.665C56.4636 21.4092 54.4586 23.6378 54.0255 26.4992L51.2139 44.9032C50.7098 48.1711 48.1792 50.7017 44.9113 51.2058L26.4914 54.0174C23.638 54.4585 21.4014 56.4554 20.6652 59.2525C19.921 62.0416 20.8592 64.9056 23.1189 66.7197L37.6675 78.4193C37.8751 78.5951 38.0828 78.7869 38.2745 78.9786Z" fill="url(#paint34_linear_2_4394)"/>
</g>
<defs>
<linearGradient id="paint0_linear_2_4394" x1="75.3213" y1="60.7366" x2="78.8456" y2="61.794" gradientUnits="userSpaceOnUse">
<stop stop-color="#B6736E"/>
<stop offset="0.4804" stop-color="#B3258A"/>
<stop offset="1" stop-color="#3B68AE"/>
</linearGradient>
<linearGradient id="paint1_linear_2_4394" x1="75.5321" y1="60.8603" x2="79.3567" y2="62.0324" gradientUnits="userSpaceOnUse">
<stop stop-color="#B6736E"/>
<stop offset="0.4804" stop-color="#B3258A"/>
<stop offset="1" stop-color="#3B68AE"/>
</linearGradient>
<linearGradient id="paint2_linear_2_4394" x1="75.4645" y1="60.3873" x2="79.6237" y2="61.6904" gradientUnits="userSpaceOnUse">
<stop stop-color="#B6736E"/>
<stop offset="0.4804" stop-color="#B3258A"/>
<stop offset="1" stop-color="#3B68AE"/>
</linearGradient>
<linearGradient id="paint3_linear_2_4394" x1="75.6484" y1="60.2015" x2="80.1724" y2="61.652" gradientUnits="userSpaceOnUse">
<stop stop-color="#B6736E"/>
<stop offset="0.4804" stop-color="#B3258A"/>
<stop offset="1" stop-color="#3B68AE"/>
</linearGradient>
<linearGradient id="paint4_linear_2_4394" x1="74.9436" y1="59.4618" x2="79.8818" y2="61.0845" gradientUnits="userSpaceOnUse">
<stop stop-color="#B6736E"/>
<stop offset="0.4804" stop-color="#B3258A"/>
<stop offset="1" stop-color="#3B68AE"/>
</linearGradient>
<linearGradient id="paint5_linear_2_4394" x1="75.5702" y1="58.9911" x2="80.9477" y2="60.805" gradientUnits="userSpaceOnUse">
<stop stop-color="#B6736E"/>
<stop offset="0.4804" stop-color="#B3258A"/>
<stop offset="1" stop-color="#3B68AE"/>
</linearGradient>
<linearGradient id="paint6_linear_2_4394" x1="75.4463" y1="58.2116" x2="81.3192" y2="60.2473" gradientUnits="userSpaceOnUse">
<stop stop-color="#B6736E"/>
<stop offset="0.4804" stop-color="#B3258A"/>
<stop offset="1" stop-color="#3B68AE"/>
</linearGradient>
<linearGradient id="paint7_linear_2_4394" x1="75.3655" y1="58.0872" x2="81.7809" y2="60.3767" gradientUnits="userSpaceOnUse">
<stop stop-color="#B6736E"/>
<stop offset="0.4804" stop-color="#B3258A"/>
<stop offset="1" stop-color="#3B68AE"/>
</linearGradient>
<linearGradient id="paint8_linear_2_4394" x1="75.4334" y1="57.2882" x2="82.4495" y2="59.8698" gradientUnits="userSpaceOnUse">
<stop stop-color="#B6736E"/>
<stop offset="0.4804" stop-color="#B3258A"/>
<stop offset="1" stop-color="#3B68AE"/>
</linearGradient>
<linearGradient id="paint9_linear_2_4394" x1="75.2215" y1="56.8721" x2="82.9029" y2="59.7913" gradientUnits="userSpaceOnUse">
<stop stop-color="#B6736E"/>
<stop offset="0.4804" stop-color="#B3258A"/>
<stop offset="1" stop-color="#3B68AE"/>
</linearGradient>
<linearGradient id="paint10_linear_2_4394" x1="75.3436" y1="56.3287" x2="83.7543" y2="59.6373" gradientUnits="userSpaceOnUse">
<stop stop-color="#B6736E"/>
<stop offset="0.4804" stop-color="#B3258A"/>
<stop offset="1" stop-color="#3B68AE"/>
</linearGradient>
<linearGradient id="paint11_linear_2_4394" x1="75.5109" y1="55.41" x2="84.7285" y2="59.1699" gradientUnits="userSpaceOnUse">
<stop stop-color="#B6736E"/>
<stop offset="0.4804" stop-color="#B3258A"/>
<stop offset="1" stop-color="#3B68AE"/>
</linearGradient>
<linearGradient id="paint12_linear_2_4394" x1="75.4537" y1="54.777" x2="85.5653" y2="59.0642" gradientUnits="userSpaceOnUse">
<stop stop-color="#B6736E"/>
<stop offset="0.4804" stop-color="#B3258A"/>
<stop offset="1" stop-color="#3B68AE"/>
</linearGradient>
<linearGradient id="paint13_linear_2_4394" x1="75.3863" y1="54.0131" x2="86.486" y2="58.9159" gradientUnits="userSpaceOnUse">
<stop stop-color="#B6736E"/>
<stop offset="0.4804" stop-color="#B3258A"/>
<stop offset="1" stop-color="#3B68AE"/>
</linearGradient>
<linearGradient id="paint14_linear_2_4394" x1="75.5934" y1="53.075" x2="87.7777" y2="58.6976" gradientUnits="userSpaceOnUse">
<stop stop-color="#B6736E"/>
<stop offset="0.4804" stop-color="#B3258A"/>
<stop offset="1" stop-color="#3B68AE"/>
</linearGradient>
<linearGradient id="paint15_linear_2_4394" x1="75.5285" y1="52.3024" x2="88.9135" y2="58.7726" gradientUnits="userSpaceOnUse">
<stop stop-color="#B6736E"/>
<stop offset="0.4804" stop-color="#B3258A"/>
<stop offset="1" stop-color="#3B68AE"/>
</linearGradient>
<linearGradient id="paint16_linear_2_4394" x1="75.5403" y1="51.3064" x2="90.2728" y2="58.7908" gradientUnits="userSpaceOnUse">
<stop stop-color="#B6736E"/>
<stop offset="0.4804" stop-color="#B3258A"/>
<stop offset="1" stop-color="#3B68AE"/>
</linearGradient>
<linearGradient id="paint17_linear_2_4394" x1="75.5666" y1="50.2217" x2="91.7537" y2="58.8924" gradientUnits="userSpaceOnUse">
<stop stop-color="#B6736E"/>
<stop offset="0.4804" stop-color="#B3258A"/>
<stop offset="1" stop-color="#3B68AE"/>
</linearGradient>
<linearGradient id="paint18_linear_2_4394" x1="75.527" y1="49.1909" x2="93.306" y2="59.272" gradientUnits="userSpaceOnUse">
<stop stop-color="#B6736E"/>
<stop offset="0.4804" stop-color="#B3258A"/>
<stop offset="1" stop-color="#3B68AE"/>
</linearGradient>
<linearGradient id="paint19_linear_2_4394" x1="75.4674" y1="48.2048" x2="94.9764" y2="59.9679" gradientUnits="userSpaceOnUse">
<stop stop-color="#B6736E"/>
<stop offset="0.4804" stop-color="#B3258A"/>
<stop offset="1" stop-color="#3B68AE"/>
</linearGradient>
<linearGradient id="paint20_linear_2_4394" x1="75.5112" y1="46.9874" x2="96.9033" y2="60.7676" gradientUnits="userSpaceOnUse">
<stop stop-color="#B6736E"/>
<stop offset="0.4804" stop-color="#B3258A"/>
<stop offset="1" stop-color="#3B68AE"/>
</linearGradient>
<linearGradient id="paint21_linear_2_4394" x1="75.4393" y1="45.7376" x2="98.8372" y2="61.93" gradientUnits="userSpaceOnUse">
<stop stop-color="#B6736E"/>
<stop offset="0.4804" stop-color="#B3258A"/>
<stop offset="1" stop-color="#3B68AE"/>
</linearGradient>
<linearGradient id="paint22_linear_2_4394" x1="75.3958" y1="44.4224" x2="100.905" y2="63.5083" gradientUnits="userSpaceOnUse">
<stop stop-color="#B6736E"/>
<stop offset="0.4804" stop-color="#B3258A"/>
<stop offset="1" stop-color="#3B68AE"/>
</linearGradient>
<linearGradient id="paint23_linear_2_4394" x1="75.2763" y1="43.0339" x2="102.95" y2="65.5856" gradientUnits="userSpaceOnUse">
<stop stop-color="#B6736E"/>
<stop offset="0.4804" stop-color="#B3258A"/>
<stop offset="1" stop-color="#3B68AE"/>
</linearGradient>
<linearGradient id="paint24_linear_2_4394" x1="75.165" y1="41.5856" x2="104.994" y2="68.2986" gradientUnits="userSpaceOnUse">
<stop stop-color="#B6736E"/>
<stop offset="0.4804" stop-color="#B3258A"/>
<stop offset="1" stop-color="#3B68AE"/>
</linearGradient>
<linearGradient id="paint25_linear_2_4394" x1="75.122" y1="40.0207" x2="106.994" y2="71.7094" gradientUnits="userSpaceOnUse">
<stop stop-color="#B6736E"/>
<stop offset="0.4804" stop-color="#B3258A"/>
<stop offset="1" stop-color="#3B68AE"/>
</linearGradient>
<linearGradient id="paint26_linear_2_4394" x1="75.0124" y1="38.3017" x2="108.637" y2="75.9051" gradientUnits="userSpaceOnUse">
<stop stop-color="#B6736E"/>
<stop offset="0.4804" stop-color="#B3258A"/>
<stop offset="1" stop-color="#3B68AE"/>
</linearGradient>
<linearGradient id="paint27_linear_2_4394" x1="74.8765" y1="36.5648" x2="109.708" y2="81.0971" gradientUnits="userSpaceOnUse">
<stop stop-color="#B6736E"/>
<stop offset="0.4804" stop-color="#B3258A"/>
<stop offset="1" stop-color="#3B68AE"/>
</linearGradient>
<linearGradient id="paint28_linear_2_4394" x1="74.7665" y1="34.6225" x2="109.953" y2="87.1561" gradientUnits="userSpaceOnUse">
<stop stop-color="#B6736E"/>
<stop offset="0.4804" stop-color="#B3258A"/>
<stop offset="1" stop-color="#3B68AE"/>
</linearGradient>
<linearGradient id="paint29_linear_2_4394" x1="74.5617" y1="32.571" x2="108.86" y2="94.1158" gradientUnits="userSpaceOnUse">
<stop stop-color="#B6736E"/>
<stop offset="0.4804" stop-color="#B3258A"/>
<stop offset="1" stop-color="#3B68AE"/>
</linearGradient>
<linearGradient id="paint30_linear_2_4394" x1="74.3918" y1="30.3811" x2="106.121" y2="101.694" gradientUnits="userSpaceOnUse">
<stop stop-color="#B6736E"/>
<stop offset="0.4804" stop-color="#B3258A"/>
<stop offset="1" stop-color="#3B68AE"/>
</linearGradient>
<linearGradient id="paint31_linear_2_4394" x1="74.1921" y1="28.0615" x2="101.278" y2="109.475" gradientUnits="userSpaceOnUse">
<stop stop-color="#B6736E"/>
<stop offset="0.4804" stop-color="#B3258A"/>
<stop offset="1" stop-color="#3B68AE"/>
</linearGradient>
<linearGradient id="paint32_linear_2_4394" x1="73.9594" y1="25.5722" x2="94.0834" y2="116.787" gradientUnits="userSpaceOnUse">
<stop stop-color="#B6736E"/>
<stop offset="0.4804" stop-color="#B3258A"/>
<stop offset="1" stop-color="#3B68AE"/>
</linearGradient>
<linearGradient id="paint33_linear_2_4394" x1="73.6951" y1="22.912" x2="84.5952" y2="122.859" gradientUnits="userSpaceOnUse">
<stop stop-color="#B6736E"/>
<stop offset="0.4804" stop-color="#B3258A"/>
<stop offset="1" stop-color="#3B68AE"/>
</linearGradient>
<linearGradient id="paint34_linear_2_4394" x1="73.3981" y1="20.0684" x2="73.1966" y2="126.935" gradientUnits="userSpaceOnUse">
<stop stop-color="#B6736E"/>
<stop offset="0.4804" stop-color="#B3258A"/>
<stop offset="1" stop-color="#3B68AE"/>
</linearGradient>
<clipPath id="clip0_2_4394">
<rect width="97.5799" height="109.873" fill="white" transform="translate(77.8457 0.154297) rotate(45)"/>
</clipPath>
</defs>
</svg>
