<?xml version="1.0" standalone="no"?>
<!DOCTYPE svg PUBLIC "-//W3C//DTD SVG 20010904//EN"
 "http://www.w3.org/TR/2001/REC-SVG-20010904/DTD/svg10.dtd">
<svg version="1.0" xmlns="http://www.w3.org/2000/svg"
 width="150.000000pt" height="150.000000pt" viewBox="0 0 150.000000 150.000000"
 preserveAspectRatio="xMidYMid meet">

<g transform="translate(0.000000,150.000000) scale(0.100000,-0.100000)"
fill="#696969" stroke="none">
<path d="M700 1470 c-28 -28 -26 -81 3 -108 31 -29 72 -28 102 3 30 30 32 64
4 99 -26 33 -79 36 -109 6z"/>
<path d="M475 1355 c-43 -42 -29 -105 26 -124 78 -27 134 65 74 124 -13 14
-36 25 -50 25 -14 0 -37 -11 -50 -25z"/>
<path d="M936 1359 c-43 -34 -32 -110 19 -129 30 -11 82 5 95 30 17 32 11 70
-15 95 -30 30 -64 32 -99 4z"/>
<path d="M240 1240 c-44 -44 -10 -130 52 -130 40 0 78 36 78 74 0 65 -84 102
-130 56z"/>
<path d="M700 1240 c-28 -28 -26 -81 3 -108 31 -29 72 -28 102 3 30 30 32 64
4 99 -26 33 -79 36 -109 6z"/>
<path d="M1163 1245 c-29 -20 -37 -59 -19 -94 25 -48 82 -56 121 -16 30 30 32
64 4 99 -24 30 -71 35 -106 11z"/>
<path d="M476 1129 c-54 -42 -19 -129 52 -129 65 0 97 83 49 128 -29 28 -67
28 -101 1z"/>
<path d="M932 1127 c-47 -50 -15 -127 51 -127 69 0 101 77 52 125 -31 32 -74
33 -103 2z"/>
<path d="M730 1033 c-56 -21 -70 -96 -24 -132 15 -12 38 -21 51 -21 33 0 73
42 73 78 0 27 -31 72 -50 72 -4 0 -14 2 -22 4 -7 3 -20 2 -28 -1z"/>
<path d="M257 1012 c-35 -38 -13 -92 36 -92 40 0 57 15 57 50 0 52 -60 78 -93
42z"/>
<path d="M1176 1014 c-19 -18 -21 -65 -4 -82 17 -17 64 -15 82 4 22 21 20 50
-4 74 -24 24 -53 26 -74 4z"/>
<path d="M482 898 c-18 -18 -14 -63 6 -81 52 -47 126 28 76 77 -18 19 -65 21
-82 4z"/>
<path d="M942 898 c-30 -30 -3 -98 39 -98 24 0 59 34 59 58 0 41 -69 69 -98
40z"/>
<path d="M278 829 c-37 -21 -9 -77 32 -64 22 7 27 44 8 63 -14 14 -18 14 -40
1z"/>
<path d="M1186 818 c-27 -39 18 -80 52 -46 18 18 14 46 -7 58 -26 14 -28 13
-45 -12z"/>
<path d="M716 784 c-34 -33 -9 -94 38 -94 28 0 56 29 56 57 0 44 -63 69 -94
37z"/>
<path d="M497 713 c-14 -13 -7 -53 11 -62 37 -20 70 27 40 57 -13 13 -41 16
-51 5z"/>
<path d="M949 698 c-10 -18 -8 -24 11 -40 38 -31 83 15 48 50 -19 19 -46 14
-59 -10z"/>
<path d="M280 666 c0 -21 21 -31 30 -15 5 7 6 17 4 21 -9 14 -34 9 -34 -6z"/>
<path d="M1194 669 c-8 -14 11 -33 25 -25 16 10 13 36 -3 36 -8 0 -18 -5 -22
-11z"/>
<path d="M737 599 c-22 -13 -22 -58 -1 -66 39 -15 73 46 37 65 -12 7 -25 7
-36 1z"/>
<path d="M507 554 c-9 -10 2 -24 19 -24 8 0 14 7 14 15 0 15 -21 21 -33 9z"/>
<path d="M967 554 c-9 -10 2 -24 19 -24 8 0 14 7 14 15 0 15 -21 21 -33 9z"/>
<path d="M740 430 c0 -11 7 -20 15 -20 8 0 15 9 15 20 0 11 -7 20 -15 20 -8 0
-15 -9 -15 -20z"/>
<path d="M274 194 c-58 -29 -71 -102 -28 -153 21 -26 33 -31 69 -31 50 0 82
22 93 65 24 86 -57 158 -134 119z m92 -28 c40 -33 39 -89 -1 -123 -77 -67
-173 50 -100 122 31 31 66 32 101 1z"/>
<path d="M525 201 c-39 -17 -60 -51 -60 -98 0 -37 5 -49 28 -69 30 -26 83 -32
118 -14 34 19 20 30 -15 13 -29 -13 -40 -14 -64 -4 -54 23 -69 95 -27 136 28
29 65 32 100 9 14 -9 25 -12 25 -6 0 27 -69 49 -105 33z"/>
<path d="M735 201 c-39 -17 -60 -51 -60 -98 0 -37 5 -49 28 -69 30 -26 83 -32
118 -14 34 19 20 30 -15 13 -29 -13 -40 -14 -64 -4 -24 10 -52 46 -52 66 0 3
36 5 80 5 78 0 80 1 80 24 0 51 -68 96 -115 77z m75 -31 c11 -11 20 -29 20
-40 0 -19 -5 -21 -67 -18 -76 3 -87 15 -49 53 30 30 69 32 96 5z"/>
<path d="M945 203 c-43 -11 -38 -23 8 -17 38 5 51 3 67 -11 11 -10 20 -26 20
-35 0 -14 -8 -16 -47 -13 -39 4 -53 1 -75 -17 -54 -42 -25 -100 49 -100 26 0
45 6 54 17 12 15 12 16 -6 9 -43 -17 -56 -18 -80 -2 -27 18 -32 45 -13 64 7 7
36 12 66 12 l54 0 -3 -32 c-3 -50 0 -68 12 -68 18 0 7 156 -11 174 -17 18 -65
27 -95 19z"/>
<path d="M1167 190 c-22 -18 -27 -19 -27 -6 0 9 -4 16 -10 16 -6 0 -10 -38
-10 -95 0 -57 4 -95 10 -95 6 0 10 28 10 64 0 76 24 116 69 116 46 0 61 -27
61 -108 0 -46 4 -72 11 -72 18 0 7 156 -11 174 -27 27 -72 30 -103 6z"/>
</g>
</svg>
