<?xml version="1.0" standalone="no"?>
<!DOCTYPE svg PUBLIC "-//W3C//DTD SVG 20010904//EN"
 "http://www.w3.org/TR/2001/REC-SVG-20010904/DTD/svg10.dtd">
<svg version="1.0" xmlns="http://www.w3.org/2000/svg"
 width="150.000000pt" height="150.000000pt" viewBox="0 0 150.000000 150.000000"
 preserveAspectRatio="xMidYMid meet">

<g transform="translate(0.000000,150.000000) scale(0.100000,-0.100000)"
fill="#696969" stroke="none">
<path d="M372 957 c-105 -106 -192 -199 -192 -207 0 -8 90 -105 199 -214 l200
-200 50 47 c49 46 50 47 25 53 -18 5 -32 0 -49 -16 l-25 -23 -175 174 -175
173 177 178 177 178 32 -31 c28 -27 32 -28 44 -14 11 14 8 22 -25 55 -22 22
-46 40 -55 40 -8 0 -102 -87 -208 -193z"/>
<path d="M868 1113 c-34 -35 -35 -40 -22 -57 14 -19 15 -19 47 12 l33 32 174
-175 175 -175 -174 -174 -174 -174 -28 21 c-21 15 -34 18 -49 11 -20 -9 -18
-12 25 -54 l45 -44 112 110 c62 61 151 146 196 190 46 43 88 87 94 98 9 16
-17 46 -188 217 -109 110 -206 199 -214 199 -9 0 -32 -17 -52 -37z"/>
<path d="M693 1038 c-157 -195 -199 -291 -173 -396 26 -110 119 -182 234 -182
75 0 130 24 175 75 73 83 84 171 35 275 -45 94 -189 290 -214 290 -4 0 -29
-28 -57 -62z m227 -376 c0 -70 -101 -153 -149 -123 -19 12 -7 27 29 35 37 7
80 51 80 80 0 25 19 48 32 40 4 -3 8 -17 8 -32z"/>
</g>
</svg>
