<?xml version="1.0" standalone="no"?>
<!DOCTYPE svg PUBLIC "-//W3C//DTD SVG 20010904//EN"
 "http://www.w3.org/TR/2001/REC-SVG-20010904/DTD/svg10.dtd">
<svg version="1.0" xmlns="http://www.w3.org/2000/svg"
 width="150.000000pt" height="150.000000pt" viewBox="0 0 150.000000 150.000000"
 preserveAspectRatio="xMidYMid meet">

<g transform="translate(0.000000,150.000000) scale(0.100000,-0.100000)"
fill="#696969" stroke="none">
<path d="M696 1354 c-54 -54 -4 -138 70 -120 27 7 56 59 46 85 -17 49 -83 69
-116 35z"/>
<path d="M517 1289 c-28 -16 -49 -68 -43 -104 20 -104 172 -104 192 0 7 37
-16 89 -45 105 -25 13 -81 12 -104 -1z"/>
<path d="M871 1286 c-13 -7 -30 -24 -37 -37 -57 -102 77 -198 157 -113 73 78
-26 202 -120 150z"/>
<path d="M695 1136 c-43 -19 -65 -57 -65 -111 0 -81 71 -130 151 -106 98 29
106 172 13 216 -39 18 -59 18 -99 1z"/>
<path d="M422 1077 c-44 -46 -14 -117 48 -117 38 0 70 32 70 70 0 63 -75 93
-118 47z"/>
<path d="M970 1080 c-11 -11 -20 -33 -20 -50 0 -63 77 -94 120 -48 59 64 -38
160 -100 98z"/>
<path d="M513 935 c-34 -24 -47 -76 -29 -118 17 -42 41 -57 91 -57 51 0 95 44
95 95 0 75 -95 123 -157 80z"/>
<path d="M849 921 c-21 -22 -29 -39 -29 -66 0 -52 44 -95 97 -95 46 0 76 19
93 59 40 98 -85 177 -161 102z"/>
<path d="M711 817 c-79 -40 -21 -160 60 -127 53 22 55 105 3 129 -31 14 -33
14 -63 -2z"/>
<path d="M290 489 l0 -151 74 4 c61 3 79 8 99 27 33 30 42 80 23 125 -18 43
-42 56 -100 56 l-46 0 0 45 c0 41 -2 45 -25 45 l-25 0 0 -151z m134 5 c9 -8
16 -31 16 -49 0 -39 -29 -65 -72 -65 -28 0 -28 1 -28 65 l0 65 34 0 c19 0 42
-7 50 -16z"/>
<path d="M60 530 c0 -17 8 -19 67 -22 55 -2 68 -6 71 -20 3 -15 -4 -18 -47
-18 -61 0 -97 -15 -105 -44 -9 -34 -7 -45 14 -66 17 -17 33 -20 111 -20 l92 0
-5 87 c-6 111 -18 123 -124 123 -67 0 -74 -2 -74 -20z m140 -125 c0 -23 -3
-25 -50 -25 -42 0 -50 3 -50 18 0 27 9 32 57 32 39 0 43 -2 43 -25z"/>
<path d="M540 530 c0 -17 8 -19 67 -22 53 -2 68 -7 71 -19 2 -13 -8 -17 -58
-21 -70 -5 -93 -22 -93 -69 0 -48 23 -59 126 -59 l89 0 -3 86 c-5 111 -18 124
-125 124 -67 0 -74 -2 -74 -20z m140 -125 c0 -23 -4 -25 -44 -25 -46 0 -62 11
-52 35 4 10 20 15 51 15 41 0 45 -2 45 -25z"/>
<path d="M814 538 c-49 -23 -60 -118 -20 -165 22 -25 31 -28 105 -31 77 -4 81
-3 81 17 0 19 -6 21 -60 21 -47 0 -64 4 -80 20 -24 24 -26 57 -4 88 13 19 24
22 80 22 57 0 64 2 64 20 0 18 -6 20 -72 19 -40 0 -83 -5 -94 -11z"/>
<path d="M1010 461 c0 -111 3 -115 122 -119 l88 -4 0 106 0 106 -30 0 -30 0 0
-84 0 -84 -39 3 c-22 2 -44 6 -50 9 -6 4 -11 39 -11 82 0 72 -1 74 -25 74 -25
0 -25 -1 -25 -89z"/>
<path d="M1268 539 c-21 -12 -25 -81 -5 -97 7 -6 40 -12 72 -14 52 -3 60 -6
60 -23 0 -18 -8 -20 -77 -23 -70 -3 -78 -5 -78 -22 0 -18 7 -20 88 -20 98 0
119 9 127 55 10 48 -12 67 -86 74 -47 4 -64 10 -64 21 0 12 15 16 68 18 59 3
67 5 67 22 0 18 -7 20 -77 20 -43 0 -86 -5 -95 -11z"/>
<path d="M853 245 c0 -22 2 -30 4 -17 2 12 2 30 0 40 -3 9 -5 -1 -4 -23z"/>
<path d="M978 269 c-8 -24 4 -59 21 -59 13 0 13 2 2 9 -8 5 -11 15 -8 23 3 8
2 21 -3 28 -6 10 -8 10 -12 -1z"/>
<path d="M54 245 c-8 -19 4 -35 24 -34 15 1 15 2 0 6 -21 5 -24 29 -5 36 9 4
9 6 -1 6 -7 1 -15 -6 -18 -14z"/>
<path d="M204 245 c-4 -9 -2 -21 4 -27 16 -16 47 -5 47 17 0 26 -42 34 -51 10z
m44 -7 c-3 -7 -11 -13 -18 -13 -7 0 -15 6 -17 13 -3 7 4 12 17 12 13 0 20 -5
18 -12z"/>
<path d="M371 233 c2 -23 2 -24 6 -5 5 27 30 29 36 2 4 -17 4 -16 3 2 -1 16
-8 24 -23 26 -20 3 -23 -1 -22 -25z"/>
<path d="M530 245 c0 -9 10 -15 23 -16 21 -1 21 -1 -3 -9 l-25 -8 28 -1 c18
-1 27 4 27 14 0 8 -9 15 -21 15 -11 0 -17 5 -14 10 3 6 1 10 -4 10 -6 0 -11
-7 -11 -15z"/>
<path d="M691 238 c-1 -24 3 -28 24 -28 21 0 25 4 24 28 -2 23 -2 24 -6 5 -2
-13 -11 -23 -18 -23 -7 0 -16 10 -18 23 -4 19 -4 18 -6 -5z"/>
<path d="M1122 235 c0 -16 2 -22 5 -12 2 9 2 23 0 30 -3 6 -5 -1 -5 -18z"/>
<path d="M1241 233 c2 -24 2 -25 6 -5 2 12 11 22 18 22 7 0 16 -10 18 -22 4
-20 4 -19 6 5 1 23 -3 27 -24 27 -21 0 -25 -4 -24 -27z"/>
<path d="M1400 239 c0 -12 8 -23 20 -26 11 -3 17 -9 14 -14 -3 -5 0 -9 5 -9 6
0 11 16 11 35 0 31 -3 35 -25 35 -19 0 -25 -5 -25 -21z m40 -4 c0 -8 -7 -15
-15 -15 -8 0 -15 7 -15 15 0 8 7 15 15 15 8 0 15 -7 15 -15z"/>
</g>
</svg>
