<?xml version="1.0" standalone="no"?>
<!DOCTYPE svg PUBLIC "-//W3C//DTD SVG 20010904//EN"
 "http://www.w3.org/TR/2001/REC-SVG-20010904/DTD/svg10.dtd">
<svg version="1.0" xmlns="http://www.w3.org/2000/svg"
 width="150.000000pt" height="150.000000pt" viewBox="0 0 150.000000 150.000000"
 preserveAspectRatio="xMidYMid meet">

<g transform="translate(0.000000,150.000000) scale(0.100000,-0.100000)"
fill="#696969" stroke="none">
<path d="M458 1266 l-297 -171 2 -348 2 -348 297 -171 297 -170 293 170 293
170 3 350 2 350 -292 167 c-161 92 -295 169 -298 170 -3 1 -139 -75 -302 -169z
m477 -217 l175 -101 -2 -201 -3 -200 -170 -99 c-93 -54 -175 -97 -181 -96 -6
2 -85 46 -177 98 l-167 95 0 202 0 201 173 101 c94 55 173 101 174 101 2 0 81
-45 178 -101z"/>
</g>
</svg>
