<svg width="301" height="88" viewBox="0 0 301 88" fill="none" xmlns="http://www.w3.org/2000/svg">
<path fill-rule="evenodd" clip-rule="evenodd" d="M119.018 47.8118C119.018 43.7726 115.892 40.5029 111.804 40.5029C107.813 40.5029 104.592 43.6765 104.592 47.8118C104.592 51.8511 107.813 55.1212 111.804 55.1212C115.892 55.1212 119.018 51.8511 119.018 47.8118ZM98 47.8609C98 39.5899 103.915 34.3965 110.599 34.3965C114.061 34.3965 116.946 35.8872 118.678 38.3396V34.9255H125.313V58.9686C125.313 66.4701 119.639 72.0001 111.705 72.0001C105.742 72.0001 101.895 70.3172 98.9617 66.8549L104.444 62.5752C106.175 64.8354 108.05 66.0858 111.512 66.0858C115.696 66.0858 118.678 63.2483 118.678 59.1615V57.1896C116.802 59.7381 113.917 61.2771 110.503 61.2771C104.107 61.2771 98 56.0836 98 47.8609Z" fill="white"/>
<path fill-rule="evenodd" clip-rule="evenodd" d="M135.935 45.0225H149.784C148.87 41.7524 146.418 40.0212 142.956 40.0212C139.542 40.0212 137.041 41.9449 135.935 45.0225ZM129.345 47.9562C129.345 40.4068 135.211 34.3957 142.954 34.3957C150.744 34.3957 156.37 40.0217 156.37 47.7161V50.216H135.741C136.654 53.6304 139.347 55.6981 143.194 55.6981C146.272 55.6981 148.339 54.3517 149.637 52.2362L155.072 55.4095C152.427 59.0643 148.868 61.4202 143.098 61.4202C134.731 61.4202 129.345 55.5059 129.345 47.9562Z" fill="white"/>
<path fill-rule="evenodd" clip-rule="evenodd" d="M179.977 47.8608C179.977 43.8215 176.851 40.5993 172.86 40.5993C168.869 40.5993 165.743 43.8215 165.743 47.8608C165.743 51.9 168.869 55.1218 172.86 55.1218C176.851 55.1218 179.977 51.9 179.977 47.8608ZM159.11 47.908C159.11 40.4068 164.976 34.3957 172.815 34.3957C180.557 34.3957 186.567 40.4068 186.567 47.908C186.567 55.3616 180.653 61.4202 172.815 61.4202C164.976 61.4202 159.11 55.3616 159.11 47.908Z" fill="white"/>
<path fill-rule="evenodd" clip-rule="evenodd" d="M189.304 47.9091C189.304 40.2636 195.219 34.3968 202.913 34.3968C208.923 34.3968 213.492 37.763 215.559 42.6195L209.453 45.0723C208.346 42.2352 206.038 40.6001 203.009 40.6001C199.017 40.6001 195.892 43.8698 195.892 47.9091C195.892 51.8522 199.066 55.1223 203.057 55.1223C206.134 55.1223 208.394 53.2947 209.5 50.6019L215.704 53.1507C213.443 57.9594 209.164 61.4213 202.961 61.4213C195.123 61.4213 189.304 55.4106 189.304 47.9091Z" fill="white"/>
<path fill-rule="evenodd" clip-rule="evenodd" d="M239.052 47.8603C239.052 43.8211 235.927 40.551 231.839 40.551C227.848 40.551 224.626 43.8211 224.626 47.8603C224.626 51.8995 227.848 55.1693 231.839 55.1693C235.927 55.1693 239.052 51.8995 239.052 47.8603ZM218.035 47.908C218.035 39.6373 223.95 34.3957 230.634 34.3957C234.096 34.3957 236.885 35.8386 238.664 38.2909V34.9248H245.252V60.8915H238.664V57.3814C236.789 59.9299 233.951 61.4202 230.537 61.4202C224.142 61.4202 218.035 56.1793 218.035 47.908Z" fill="white"/>
<path fill-rule="evenodd" clip-rule="evenodd" d="M248.7 54.9781L255.095 52.4771C256.249 54.8334 258.221 55.9877 261.058 55.9877C263.751 55.9877 265.194 54.6895 265.194 53.1505C265.194 51.2751 262.404 50.7946 259.086 50.1694C254.662 49.2556 249.854 47.9089 249.854 42.4272C249.854 38.0032 254.133 34.3009 260.481 34.3009C266.011 34.3009 269.184 36.3682 271.637 39.8304L265.578 42.2832C264.472 40.5521 262.933 39.5418 260.481 39.5418C257.836 39.5418 256.634 40.5521 256.634 42.0428C256.634 43.7257 258.75 44.1101 262.549 44.9278C266.876 45.7934 271.974 47.2841 271.974 52.8622C271.974 56.9015 268.367 61.4215 260.817 61.4215C254.614 61.4215 250.767 59.1617 248.7 54.9781Z" fill="white"/>
<path fill-rule="evenodd" clip-rule="evenodd" d="M275.873 23H282.46V38.0991C284.192 35.791 286.789 34.3964 290.01 34.3964C296.166 34.3964 300.109 38.4838 300.109 45.2159V60.8922H293.28V46.2257C293.28 42.523 291.501 40.215 287.991 40.215C284.865 40.215 282.46 42.523 282.46 46.5623V60.8922H275.873V23Z" fill="white"/>
<path fill-rule="evenodd" clip-rule="evenodd" d="M34 0L0 0L0 48C0 56.8363 7.61144 64 17 64C26.389 64 34 56.8363 34 48L34 0Z" fill="url(#paint0_linear_2_7552)"/>
<path fill-rule="evenodd" clip-rule="evenodd" d="M76 88H42L42 40C42 31.1637 49.6114 24 59 24C68.389 24 76 31.1637 76 40L76 88Z" fill="url(#paint1_linear_2_7552)"/>
<path fill-rule="evenodd" clip-rule="evenodd" d="M59 56C49.611 56 42 48.8367 42 40C42 31.1633 49.611 24 59 24C68.389 24 76 31.1633 76 40C76 48.8367 68.389 56 59 56Z" fill="#FF607D"/>
<path fill-rule="evenodd" clip-rule="evenodd" d="M17 65C7.61102 65 0 57.6128 0 48.5C0 39.3872 7.61102 32 17 32C26.389 32 34 39.3872 34 48.5C34 57.6128 26.389 65 17 65Z" fill="#0000FF"/>
<defs>
<linearGradient id="paint0_linear_2_7552" x1="34" y1="64" x2="34" y2="0" gradientUnits="userSpaceOnUse">
<stop stop-color="#0000FF"/>
<stop offset="1" stop-color="#0000FF" stop-opacity="0.01"/>
</linearGradient>
<linearGradient id="paint1_linear_2_7552" x1="76" y1="24" x2="76" y2="88" gradientUnits="userSpaceOnUse">
<stop stop-color="#FF6482"/>
<stop offset="1" stop-color="#FF6482" stop-opacity="0.01"/>
</linearGradient>
</defs>
</svg>
