<svg width="272" height="56" viewBox="0 0 272 56" fill="none" xmlns="http://www.w3.org/2000/svg">
<path d="M71.5339 20.9436C71.5339 24.5291 74.4403 27.4355 78.0258 27.4355H100.098V43.0161H84.5177V41.7177H92.308C95.8935 41.7177 98.8 38.8113 98.8 35.2258C98.8 31.6403 95.8935 28.7339 92.308 28.7339H78.0258C74.4403 28.7339 71.5339 31.6403 71.5339 35.2258V49.5081C71.5339 53.0935 74.4403 56 78.0258 56H106.59C110.176 56 113.082 53.0935 113.082 49.5081V20.9436C113.082 17.3581 110.176 14.4517 106.59 14.4517H78.0258C74.4403 14.4517 71.5339 17.3581 71.5339 20.9436Z" fill="#EF472B"/>
<path d="M143.797 20.9436C143.797 24.5291 146.703 27.4355 150.289 27.4355H172.361V43.0161H156.781V41.7177H164.571C168.157 41.7177 171.063 38.8113 171.063 35.2258C171.063 31.6403 168.157 28.7339 164.571 28.7339H150.289C146.703 28.7339 143.797 31.6403 143.797 35.2258V49.5081C143.797 53.0935 146.703 56 150.289 56H178.853C182.439 56 185.345 53.0935 185.345 49.5081V20.9436C185.345 17.3581 182.439 14.4517 178.853 14.4517H150.289C146.703 14.4517 143.797 17.3581 143.797 20.9436Z" fill="#EF472B"/>
<path d="M271.155 49.5081C271.155 45.9226 268.249 43.0161 264.663 43.0161H242.591V27.4355H258.171V28.7339H250.381C246.795 28.7339 243.889 31.6403 243.889 35.2258C243.889 38.8113 246.795 41.7177 250.381 41.7177H264.663C268.249 41.7177 271.155 38.8113 271.155 35.2258V20.9436C271.155 17.3581 268.249 14.4517 264.663 14.4517H236.099C232.513 14.4517 229.607 17.3581 229.607 20.9436V49.5081C229.607 53.0935 232.513 56 236.099 56H264.663C268.249 56 271.155 53.0935 271.155 49.5081Z" fill="#EF472B"/>
<path d="M213.512 14.4517H192.738C189.153 14.4517 186.246 17.3581 186.246 20.9436V49.5081C186.246 53.0935 189.153 56 192.738 56H221.303C224.888 56 227.795 53.0935 227.795 49.5081C227.795 45.9226 224.888 43.0161 221.303 43.0161H199.23V27.4355H214.811V35.2258C214.811 38.8113 217.717 41.7177 221.303 41.7177C224.888 41.7177 227.795 38.8113 227.795 35.2258V20.9436C227.795 17.3581 224.888 14.4517 221.303 14.4517H213.512Z" fill="#EF472B"/>
<path d="M121.219 55.9999C124.711 55.9999 127.541 53.0846 127.541 49.4883V6.51162C127.541 2.91525 124.711 0 121.219 0C117.727 0 114.896 2.91525 114.896 6.51162V49.4883C114.896 53.0846 117.727 55.9999 121.219 55.9999Z" fill="#EF472B"/>
<path d="M129.346 6.51162V49.4883C129.346 53.0846 132.176 55.9999 135.668 55.9999C139.16 55.9999 141.991 53.0846 141.991 49.4883V6.51162C141.991 2.91525 139.16 0 135.668 0C132.176 0 129.346 2.91525 129.346 6.51162Z" fill="#EF472B"/>
<path d="M6.70688 14.4517H21.0581C24.6609 14.4517 27.5814 17.3581 27.5814 20.9436V43.0161H28.8861V20.9436C28.8861 17.3581 31.8065 14.4517 35.4093 14.4517H49.7606C53.3634 14.4517 56.2839 17.3581 56.2839 20.9436V43.0161H57.5885V20.9436C57.5885 17.3581 60.509 14.4517 64.1118 14.4517C67.7146 14.4517 70.6351 17.3581 70.6351 20.9436V49.5081C70.6351 53.0935 67.7146 56 64.1118 56H49.7606C46.1578 56 43.2373 53.0935 43.2373 49.5081V27.4355H41.9326V49.5081C41.9326 53.0935 39.0122 56 35.4093 56H21.0581C17.4553 56 14.5348 53.0935 14.5348 49.5081V27.4355H6.70688C3.10407 27.4355 0.183594 24.5291 0.183594 20.9436C0.183594 17.3581 3.10407 14.4517 6.70688 14.4517Z" fill="#EF472B"/>
</svg>
