<svg width="248" height="32" viewBox="0 0 248 32" fill="none" xmlns="http://www.w3.org/2000/svg">
<path d="M7.91159 31.8821C7.02762 31.8821 6.37937 31.5285 5.96684 30.7624L0.309392 20.9208C-0.103131 20.1547 -0.103131 19.4475 0.309392 18.6814L5.90791 8.8987C6.32043 8.13259 6.96868 7.779 7.85266 7.779H19.9337V1.65009C19.9337 0.589318 20.523 0 21.5838 0H24.1768C25.2375 0 25.8269 0.589318 25.8269 1.65009V30.2909C25.8269 31.3517 25.2375 31.941 24.1768 31.941H22.3499C21.4659 31.941 20.9944 31.3517 20.4051 30.7035L19.1676 29.407C19.0497 29.2891 18.814 29.1712 18.5782 29.1712H18.2836C18.0479 29.1712 17.8711 29.2891 17.6943 29.407L16.4567 30.7035C15.8674 31.3517 15.337 31.941 14.453 31.941H7.91159V31.8821ZM9.85634 26.5782H19.9337V13.0829H9.85634L6.02577 19.8011L9.85634 26.5782Z" fill="white"/>
<path d="M35.079 31.8822C34.1951 31.8822 33.7236 31.2929 33.1343 30.6447L31.1895 28.4642C30.6002 27.8749 30.3645 27.2266 30.3645 26.4605V20.5084C30.3645 19.4476 30.9538 18.8583 32.0146 18.8583H34.5487C35.6094 18.8583 36.1987 19.4476 36.1987 20.5084V26.1659C36.1987 26.4605 36.3755 26.6373 36.6702 26.6373H48.2208V13.0241H35.138C34.0772 13.0241 33.4879 12.4348 33.4879 11.374V9.3703C33.4879 8.30953 34.0772 7.72021 35.138 7.72021H49.2816C50.1656 7.72021 50.637 8.30953 51.2264 8.95778L53.1711 11.1383C53.7604 11.7276 53.9961 12.3758 53.9961 13.1419V26.6373H55.1748C56.2356 26.6373 56.8249 27.2266 56.8249 28.2874V30.2322C56.8249 31.2929 56.2356 31.8822 55.1748 31.8822H51.6389C50.7549 31.8822 50.2245 31.2929 49.6352 30.6447L48.3976 29.3482C48.2798 29.2303 48.044 29.1125 47.8083 29.1125H47.4547C47.219 29.1125 47.0422 29.2303 46.8654 29.3482L45.6278 30.6447C45.0385 31.2929 44.5081 31.8822 43.6242 31.8822H35.079Z" fill="white"/>
<path d="M83.2265 19.0351C84.2872 19.0351 84.8766 19.6244 84.8766 20.6852V26.5783C84.8766 27.4034 84.6408 27.9927 84.0515 28.582L82.1068 30.7625C81.5175 31.4108 81.046 32.0001 80.162 32.0001H67.3738C66.4898 32.0001 66.0184 31.4108 65.4291 30.7625L63.4843 28.582C62.895 27.9927 62.6593 27.3445 62.6593 26.5783V13.083H59.5359C58.4751 13.083 57.8858 12.4937 57.8858 11.4329V9.37027C57.8858 8.30949 58.4751 7.72018 59.5359 7.72018H62.6003V4.18427C62.6003 3.1235 63.1897 2.53418 64.2504 2.53418H66.8434C67.9042 2.53418 68.4935 3.1235 68.4935 4.18427V10.0774C68.4935 10.3721 68.6703 10.5489 68.965 10.5489H69.849C70.0847 10.5489 70.2615 10.431 70.4383 10.2542L71.6758 8.78095C72.2652 8.1327 72.7366 7.72018 73.6206 7.72018H82.755C83.8158 7.72018 84.4051 8.30949 84.4051 9.37027V11.4329C84.4051 12.4937 83.8158 13.083 82.755 13.083H68.4346V26.5783H79.337V20.6262C79.337 19.5655 79.9263 18.9761 80.9871 18.9761H83.2265V19.0351Z" fill="white"/>
<path d="M93.8342 31.8822C92.9503 31.8822 92.4788 31.2929 91.8895 30.6447L89.9447 28.4642C89.3554 27.8749 89.1197 27.2266 89.1197 26.4605V20.5084C89.1197 19.4476 89.709 18.8583 90.7698 18.8583H93.3039C94.3646 18.8583 94.9539 19.4476 94.9539 20.5084V26.1659C94.9539 26.4605 95.1307 26.6373 95.4254 26.6373H106.976V13.0241H93.9521C92.8913 13.0241 92.302 12.4348 92.302 11.374V9.3703C92.302 8.30953 92.8913 7.72021 93.9521 7.72021H108.096C108.98 7.72021 109.451 8.30953 110.04 8.95778L111.985 11.1383C112.575 11.7276 112.81 12.3758 112.81 13.1419V26.6373H113.989C115.05 26.6373 115.639 27.2266 115.639 28.2874V30.2322C115.639 31.2929 115.05 31.8822 113.989 31.8822H110.453C109.569 31.8822 109.039 31.2929 108.449 30.6447L107.212 29.3482C107.094 29.2303 106.858 29.1125 106.622 29.1125H106.269C106.033 29.1125 105.856 29.2303 105.68 29.3482L104.442 30.6447C103.853 31.2929 103.322 31.8822 102.438 31.8822H93.8342Z" fill="white"/>
<path d="M127.72 31.8822C126.129 31.8822 125.245 31.1161 124.714 29.8196L116.523 9.66496C116.11 8.60419 116.582 7.72021 117.761 7.72021H120.471C121.414 7.72021 122.004 8.13274 122.357 9.01671L129.606 26.6962H131.551L138.799 9.01671C139.153 8.19167 139.742 7.72021 140.685 7.72021H143.396C144.633 7.72021 145.105 8.54526 144.692 9.66496L136.501 29.8196C135.97 31.1161 135.086 31.8822 133.495 31.8822H127.72Z" fill="white"/>
<path d="M153.237 31.8819C152.353 31.8819 151.705 31.5283 151.293 30.7622L145.694 20.9206C145.282 20.1545 145.282 19.4473 145.694 18.6812L151.293 8.89851C151.705 8.1324 152.353 7.77881 153.237 7.77881H166.497C167.381 7.77881 167.97 8.1324 168.442 9.01638L170.387 12.2576C170.799 13.0237 170.799 13.7309 170.387 14.497L167.44 19.9188C166.969 20.8027 166.32 21.5688 165.26 21.5688H162.195C161.134 21.5688 160.604 20.7438 161.075 19.9188L164.67 13.6131L164.376 13.0827H155.241L151.411 19.8598L155.241 26.6959H167.97C169.031 26.6959 169.62 27.2852 169.62 28.346V30.2908C169.62 31.3515 169.031 31.9408 167.97 31.9408H153.237V31.8819Z" fill="white"/>
<path d="M176.574 31.8822C175.514 31.8822 174.924 31.2929 174.924 30.2322V9.3703C174.924 8.30953 175.514 7.72021 176.574 7.72021H179.167C180.228 7.72021 180.817 8.30953 180.817 9.3703V10.0775C180.817 10.3721 180.994 10.5489 181.289 10.5489H182.173C182.409 10.5489 182.585 10.4311 182.762 10.2543L184.059 8.78099C184.648 8.13274 185.119 7.72021 186.003 7.72021H193.959C195.02 7.72021 195.609 8.30953 195.609 9.3703V11.4329C195.609 12.4937 195.02 13.083 193.959 13.083H181.289C180.994 13.083 180.817 13.2598 180.817 13.5545V30.2322C180.817 31.2929 180.228 31.8822 179.167 31.8822H176.574Z" fill="white"/>
<path d="M199.735 31.8819C198.674 31.8819 198.084 31.2926 198.084 30.2318V28.4639C198.084 27.4031 198.674 26.8138 199.735 26.8138H213.76L215.116 24.5744L213.76 22.276H202.151C201.267 22.276 200.736 22.0403 200.206 21.2153L196.906 16.1471C196.317 15.3221 196.317 14.7328 196.906 13.9077L200.206 8.83958C200.677 8.07347 201.267 7.77881 202.151 7.77881H216.648C217.709 7.77881 218.298 8.36813 218.298 9.4289V11.1969C218.298 12.2576 217.709 12.8469 216.648 12.8469H203.624L202.269 15.0864L203.624 17.3847H215.234C216.118 17.3847 216.648 17.6204 217.178 18.4455L220.479 23.5136C221.068 24.3386 221.068 24.928 220.479 25.753L217.178 30.8211C216.707 31.5872 216.118 31.8819 215.234 31.8819H199.735Z" fill="white"/>
<path d="M230.084 31.8819C229.2 31.8819 228.552 31.5283 228.14 30.7622L222.541 20.9206C222.129 20.1545 222.129 19.4473 222.541 18.6812L228.14 8.89851C228.552 8.1324 229.2 7.77881 230.084 7.77881H243.344C244.228 7.77881 244.817 8.1324 245.289 9.01638L247.234 12.2576C247.646 13.0237 247.646 13.7309 247.234 14.497L244.287 19.9188C243.816 20.8027 243.167 21.5688 242.107 21.5688H239.042C237.981 21.5688 237.451 20.7438 237.922 19.9188L241.517 13.6131L241.223 13.0827H232.088L228.258 19.8598L232.088 26.6959H244.817C245.878 26.6959 246.468 27.2852 246.468 28.346V30.2908C246.468 31.3515 245.878 31.9408 244.817 31.9408H230.084V31.8819Z" fill="white"/>
</svg>
