<svg width="289" height="56" viewBox="0 0 289 56" fill="none" xmlns="http://www.w3.org/2000/svg">
<path fill-rule="evenodd" clip-rule="evenodd" d="M106.852 28.3594C106.852 24.3264 103.732 21.0624 99.6516 21.0624C95.6666 21.0624 92.4506 24.2304 92.4506 28.3594C92.4506 32.3914 95.6666 35.6554 99.6516 35.6554C103.732 35.6554 106.852 32.3914 106.852 28.3594ZM85.8736 28.4074C85.8736 20.1504 91.7786 14.9654 98.4516 14.9654C101.908 14.9654 104.788 16.4544 106.516 18.9024V15.4944H113.141V39.4964C113.141 46.9844 107.476 52.5054 99.5546 52.5054C93.6026 52.5054 89.7616 50.8254 86.8336 47.3684L92.3066 43.0954C94.0346 45.3524 95.9066 46.6004 99.3636 46.6004C103.539 46.6004 106.516 43.7684 106.516 39.6874V37.7194C104.644 40.2634 101.764 41.7994 98.3546 41.7994C91.9706 41.7994 85.8736 36.6154 85.8736 28.4074Z" fill="white"/>
<path fill-rule="evenodd" clip-rule="evenodd" d="M124.039 25.5742H137.864C136.952 22.3102 134.504 20.5822 131.048 20.5822C127.64 20.5822 125.143 22.5022 124.039 25.5742ZM117.463 28.5032C117.463 20.9662 123.319 14.9662 131.048 14.9662C138.824 14.9662 144.441 20.5822 144.441 28.2622V30.7592H123.848C124.76 34.1672 127.447 36.2312 131.288 36.2312C134.36 36.2312 136.424 34.8872 137.721 32.7752L143.144 35.9432C140.505 39.5922 136.952 41.9442 131.191 41.9442C122.839 41.9442 117.463 36.0392 117.463 28.5032Z" fill="white"/>
<path fill-rule="evenodd" clip-rule="evenodd" d="M168.315 28.4072C168.315 24.3752 165.194 21.1582 161.21 21.1582C157.226 21.1582 154.105 24.3752 154.105 28.4072C154.105 32.4392 157.226 35.6552 161.21 35.6552C165.194 35.6552 168.315 32.4392 168.315 28.4072ZM147.481 28.4552C147.481 20.9662 153.337 14.9662 161.162 14.9662C168.89 14.9662 174.891 20.9662 174.891 28.4552C174.891 35.8952 168.987 41.9442 161.162 41.9442C153.337 41.9442 147.481 35.8952 147.481 28.4552Z" fill="white"/>
<path fill-rule="evenodd" clip-rule="evenodd" d="M176.909 35.5117L183.293 33.0157C184.445 35.3667 186.414 36.5197 189.246 36.5197C191.934 36.5197 193.374 35.2237 193.374 33.6877C193.374 31.8157 190.59 31.3347 187.277 30.7107C182.861 29.7987 178.06 28.4547 178.06 22.9827C178.06 18.5667 182.333 14.8697 188.67 14.8697C194.19 14.8697 197.358 16.9337 199.806 20.3907L193.758 22.8387C192.654 21.1107 191.118 20.1027 188.67 20.1027C186.029 20.1027 184.829 21.1107 184.829 22.5987C184.829 24.2787 186.941 24.6617 190.734 25.4787C195.055 26.3427 200.142 27.8307 200.142 33.3997C200.142 37.4317 196.543 41.9447 189.006 41.9447C182.813 41.9447 178.972 39.6877 176.909 35.5117Z" fill="white"/>
<path fill-rule="evenodd" clip-rule="evenodd" d="M202.906 28.4551C202.906 20.8221 208.81 14.9661 216.491 14.9661C222.492 14.9661 227.052 18.3261 229.116 23.1751L223.019 25.6231C221.916 22.7901 219.611 21.1581 216.587 21.1581C212.602 21.1581 209.482 24.4231 209.482 28.4551C209.482 32.3921 212.65 35.6551 216.635 35.6551C219.707 35.6551 221.964 33.8311 223.067 31.1431L229.26 33.6871C227.004 38.4871 222.731 41.9441 216.539 41.9441C208.715 41.9441 202.906 35.9431 202.906 28.4551Z" fill="white"/>
<path fill-rule="evenodd" clip-rule="evenodd" d="M252.88 28.4072C252.88 24.3752 249.76 21.1102 245.679 21.1102C241.695 21.1102 238.479 24.3752 238.479 28.4072C238.479 32.4392 241.695 35.7032 245.679 35.7032C249.76 35.7032 252.88 32.4392 252.88 28.4072ZM231.902 28.4552C231.902 20.1982 237.807 14.9662 244.48 14.9662C247.936 14.9662 250.72 16.4062 252.496 18.8542V15.4942H259.072V41.4162H252.496V37.9122C250.624 40.4562 247.791 41.9442 244.383 41.9442C237.998 41.9442 231.902 36.7122 231.902 28.4552Z" fill="white"/>
<mask id="mask0_2_7523" style="mask-type:alpha" maskUnits="userSpaceOnUse" x="264" y="14" width="25" height="28">
<path fill-rule="evenodd" clip-rule="evenodd" d="M264.758 14.9661H289V41.4161H264.758V14.9661Z" fill="white"/>
</mask>
<g mask="url(#mask0_2_7523)">
<path fill-rule="evenodd" clip-rule="evenodd" d="M264.758 15.4941H271.383V18.7581C273.063 16.4061 275.703 14.9661 278.968 14.9661C285.112 14.9661 289 18.9981 289 25.7661V41.4161H282.232V26.7741C282.232 23.0781 280.456 20.7741 276.951 20.7741C273.831 20.7741 271.431 23.0781 271.431 27.1101V41.4161H264.758V15.4941Z" fill="white"/>
</g>
<mask id="mask1_2_7523" style="mask-type:alpha" maskUnits="userSpaceOnUse" x="0" y="0" width="289" height="56">
<path fill-rule="evenodd" clip-rule="evenodd" d="M0.851562 56H289V0H0.851562V56Z" fill="white"/>
</mask>
<g mask="url(#mask1_2_7523)">
<path fill-rule="evenodd" clip-rule="evenodd" d="M14.8516 14H28.8516V0H14.8516V14Z" fill="white"/>
<path fill-rule="evenodd" clip-rule="evenodd" d="M28.8516 28H42.8516V14H28.8516V28Z" fill="white"/>
<path fill-rule="evenodd" clip-rule="evenodd" d="M42.8516 42H56.8516V28H42.8516V42Z" fill="white"/>
<path fill-rule="evenodd" clip-rule="evenodd" d="M14.8516 28H28.8516V14H14.8516V28Z" fill="white"/>
<path fill-rule="evenodd" clip-rule="evenodd" d="M28.8516 42H42.8516V28H28.8516V42Z" fill="white"/>
<path fill-rule="evenodd" clip-rule="evenodd" d="M14.8516 42H28.8516V28H14.8516V42Z" fill="white"/>
<path fill-rule="evenodd" clip-rule="evenodd" d="M28.8516 56H42.8516V42H28.8516V56Z" fill="white"/>
<path fill-rule="evenodd" clip-rule="evenodd" d="M0.851562 28H14.8516V14H0.851562V28Z" fill="white"/>
</g>
</svg>
