<svg width="228" height="42" viewBox="0 0 228 42" fill="none" xmlns="http://www.w3.org/2000/svg">
<path d="M30.9316 15.184C30.9316 15.8933 30.857 16.6213 30.7076 17.368L28.0196 33.328C27.6463 35.7173 26.6383 37.6027 24.9956 38.984C23.3903 40.328 21.2996 41 18.7236 41H5.00363V33.272H17.9396C18.649 33.272 19.2276 33.104 19.6756 32.768C20.1236 32.3947 20.4223 31.8533 20.5716 31.144L21.5796 25.208H21.3556C20.4596 25.88 19.3583 26.4027 18.0516 26.776C16.745 27.1493 15.4196 27.3547 14.0756 27.392C11.2383 27.4293 8.81163 26.944 6.79563 25.936C4.81696 24.928 3.30496 23.5093 2.25963 21.68C1.21429 19.8133 0.691625 17.6667 0.691625 15.24C0.691625 12.8507 1.32629 10.704 2.59563 8.8C3.86496 6.896 5.63829 5.40266 7.91563 4.32C10.2303 3.23733 12.8436 2.696 15.7556 2.696C18.7423 2.696 21.3743 3.23733 23.6516 4.32C25.9663 5.36533 27.7583 6.84 29.0276 8.744C30.297 10.6107 30.9316 12.7573 30.9316 15.184ZM23.0916 15.184C23.0916 13.728 22.4383 12.552 21.1316 11.656C19.8623 10.7227 18.0703 10.256 15.7556 10.256C13.5156 10.256 11.7423 10.7227 10.4356 11.656C9.16629 12.5893 8.53163 13.784 8.53163 15.24C8.53163 16.7707 9.16629 18.0027 10.4356 18.936C11.7423 19.832 13.553 20.28 15.8676 20.28C18.0703 20.28 19.825 19.8133 21.1316 18.88C22.4383 17.9467 23.0916 16.7147 23.0916 15.184ZM95.9853 3.48L85.2333 41H76.3293L69.7213 17.312L63.0573 41H54.1533L43.4013 3.48H51.9133L59.0253 28.288L65.8573 3.48H73.5293L80.3613 28.232L87.4173 3.48H95.9853ZM109.547 41.84C106.598 41.84 103.985 41.1867 101.707 39.88C99.43 38.5733 97.6566 36.8 96.3873 34.56C95.1553 32.32 94.5393 29.8187 94.5393 27.056C94.5393 24.256 95.1553 21.7547 96.3873 19.552C97.6193 17.312 99.374 15.5387 101.651 14.232C103.929 12.9253 106.561 12.272 109.547 12.272C112.534 12.272 115.166 12.9253 117.443 14.232C119.721 15.5387 121.475 17.312 122.707 19.552C123.939 21.7547 124.555 24.256 124.555 27.056C124.555 29.8187 123.921 32.32 122.651 34.56C121.419 36.8 119.665 38.5733 117.387 39.88C115.11 41.1867 112.497 41.84 109.547 41.84ZM102.099 27.056C102.099 28.4373 102.417 29.7067 103.051 30.864C103.686 31.984 104.563 32.88 105.683 33.552C106.803 34.1867 108.091 34.504 109.547 34.504C111.003 34.504 112.291 34.1867 113.411 33.552C114.531 32.88 115.409 31.984 116.043 30.864C116.678 29.7067 116.995 28.4373 116.995 27.056C116.995 25.6747 116.678 24.424 116.043 23.304C115.446 22.1467 114.569 21.232 113.411 20.56C112.291 19.888 111.003 19.552 109.547 19.552C108.091 19.552 106.785 19.888 105.627 20.56C104.507 21.232 103.63 22.1467 102.995 23.304C102.398 24.424 102.099 25.6747 102.099 27.056ZM135.934 41H128.374V13.112H135.542V17.48H135.766C136.289 16.0987 137.148 15.0347 138.342 14.288C139.537 13.504 140.937 13.112 142.542 13.112H148.422V20.672H142.15C140.321 20.672 138.828 21.2693 137.67 22.464C136.513 23.6213 135.934 25.1707 135.934 27.112V41ZM151.773 32.936V0.679998H159.333V31.592C159.333 32.2267 159.519 32.7307 159.893 33.104C160.303 33.4773 160.863 33.664 161.573 33.664H165.325V41H160.117C157.466 41 155.413 40.2907 153.957 38.872C152.501 37.4533 151.773 35.4747 151.773 32.936ZM189.406 0.679998H196.91V41H189.406V37.36H189.182C188.248 38.704 186.998 39.7867 185.43 40.608C183.862 41.392 182.107 41.8027 180.166 41.84C177.59 41.84 175.275 41.2053 173.222 39.936C171.206 38.6667 169.638 36.912 168.518 34.672C167.398 32.3947 166.838 29.8373 166.838 27C166.838 24.1253 167.398 21.568 168.518 19.328C169.675 17.088 171.262 15.352 173.278 14.12C175.331 12.888 177.608 12.272 180.11 12.272C182.088 12.272 183.862 12.7013 185.43 13.56C186.998 14.3813 188.248 15.464 189.182 16.808H189.406V0.679998ZM181.958 34.672C183.376 34.672 184.646 34.336 185.766 33.664C186.923 32.992 187.819 32.0773 188.454 30.92C189.088 29.7627 189.406 28.4747 189.406 27.056C189.406 25.6747 189.088 24.4053 188.454 23.248C187.856 22.0907 186.979 21.176 185.822 20.504C184.702 19.7947 183.414 19.44 181.958 19.44C180.502 19.44 179.195 19.776 178.038 20.448C176.918 21.0827 176.04 21.9973 175.406 23.192C174.771 24.3493 174.454 25.6373 174.454 27.056C174.454 28.4747 174.771 29.7813 175.406 30.976C176.04 32.1333 176.918 33.048 178.038 33.72C179.195 34.3547 180.502 34.672 181.958 34.672ZM200.908 21.344C200.908 19.776 201.3 18.3573 202.084 17.088C202.868 15.8187 203.95 14.848 205.332 14.176C206.713 13.4667 208.244 13.112 209.924 13.112H225.268V20.392H210.148C209.774 20.392 209.476 20.504 209.252 20.728C209.065 20.952 208.972 21.232 208.972 21.568C208.972 21.8667 209.046 22.128 209.196 22.352C209.382 22.5387 209.625 22.6693 209.924 22.744L220.396 24.872C222.486 25.32 224.148 26.2347 225.38 27.616C226.649 28.9973 227.284 30.6587 227.284 32.6C227.284 34.2053 226.873 35.6427 226.052 36.912C225.268 38.1813 224.185 39.1893 222.804 39.936C221.422 40.6453 219.892 41 218.212 41H202.084V33.664H218.1C218.473 33.664 218.772 33.552 218.996 33.328C219.22 33.104 219.332 32.8053 219.332 32.432C219.332 32.1333 219.238 31.872 219.052 31.648C218.902 31.424 218.678 31.2747 218.38 31.2L207.74 28.904C205.686 28.4933 204.025 27.5973 202.756 26.216C201.524 24.8347 200.908 23.2107 200.908 21.344Z" fill="white"/>
</svg>
