<?xml version="1.0" standalone="no"?>
<!DOCTYPE svg PUBLIC "-//W3C//DTD SVG 20010904//EN"
 "http://www.w3.org/TR/2001/REC-SVG-20010904/DTD/svg10.dtd">
<svg version="1.0" xmlns="http://www.w3.org/2000/svg"
 width="150.000000pt" height="150.000000pt" viewBox="0 0 150.000000 150.000000"
 preserveAspectRatio="xMidYMid meet">

<g transform="translate(0.000000,150.000000) scale(0.100000,-0.100000)"
fill="#696969" stroke="none">
<path d="M200 1297 c-112 -66 -179 -111 -187 -127 -18 -36 -17 -416 1 -449 14
-25 328 -216 375 -228 14 -3 37 -1 52 4 16 6 160 88 322 182 162 94 305 171
318 171 13 0 72 -28 131 -61 137 -79 141 -86 136 -249 -4 -140 0 -135 -133
-214 -66 -40 -104 -56 -128 -56 -42 0 -197 85 -239 131 -25 26 -28 36 -28 104
l0 74 -70 -40 -70 -41 0 -73 c0 -41 5 -85 11 -98 17 -37 347 -227 394 -227 28
0 78 24 211 101 96 56 179 109 184 119 13 24 13 446 0 469 -5 10 -89 65 -187
122 -128 74 -186 103 -208 102 -31 -1 -123 -52 -503 -275 -129 -77 -157 -90
-183 -84 -39 7 -226 122 -239 146 -6 10 -10 79 -10 152 0 134 0 134 28 160 41
38 204 128 232 128 29 0 225 -114 245 -143 10 -15 15 -47 15 -99 0 -43 3 -78
6 -78 3 0 37 18 76 41 l70 41 -4 83 c-2 63 -7 88 -22 103 -10 12 -92 64 -182
116 -129 76 -172 96 -201 96 -30 0 -76 -23 -213 -103z"/>
</g>
</svg>
